G04*
G04 #@! TF.GenerationSoftware,Altium Limited,Altium Designer,21.2.2 (38)*
G04*
G04 Layer_Color=8388736*
%FSLAX44Y44*%
%MOMM*%
G71*
G04*
G04 #@! TF.SameCoordinates,0481F6AC-406D-4A55-AE23-66ADD5F6D1FA*
G04*
G04*
G04 #@! TF.FilePolarity,Negative*
G04*
G01*
G75*
%ADD10R,1.6532X0.6532*%
G04:AMPARAMS|DCode=11|XSize=1.6532mm|YSize=0.6532mm|CornerRadius=0.2141mm|HoleSize=0mm|Usage=FLASHONLY|Rotation=0.000|XOffset=0mm|YOffset=0mm|HoleType=Round|Shape=RoundedRectangle|*
%AMROUNDEDRECTD11*
21,1,1.6532,0.2250,0,0,0.0*
21,1,1.2250,0.6532,0,0,0.0*
1,1,0.4282,0.6125,-0.1125*
1,1,0.4282,-0.6125,-0.1125*
1,1,0.4282,-0.6125,0.1125*
1,1,0.4282,0.6125,0.1125*
%
%ADD11ROUNDEDRECTD11*%
%ADD12R,2.5532X6.6632*%
G04:AMPARAMS|DCode=13|XSize=1.1532mm|YSize=1.6032mm|CornerRadius=0.3391mm|HoleSize=0mm|Usage=FLASHONLY|Rotation=270.000|XOffset=0mm|YOffset=0mm|HoleType=Round|Shape=RoundedRectangle|*
%AMROUNDEDRECTD13*
21,1,1.1532,0.9250,0,0,270.0*
21,1,0.4750,1.6032,0,0,270.0*
1,1,0.6782,-0.4625,-0.2375*
1,1,0.6782,-0.4625,0.2375*
1,1,0.6782,0.4625,0.2375*
1,1,0.6782,0.4625,-0.2375*
%
%ADD13ROUNDEDRECTD13*%
G04:AMPARAMS|DCode=14|XSize=1.1532mm|YSize=1.6032mm|CornerRadius=0.3391mm|HoleSize=0mm|Usage=FLASHONLY|Rotation=180.000|XOffset=0mm|YOffset=0mm|HoleType=Round|Shape=RoundedRectangle|*
%AMROUNDEDRECTD14*
21,1,1.1532,0.9250,0,0,180.0*
21,1,0.4750,1.6032,0,0,180.0*
1,1,0.6782,-0.2375,0.4625*
1,1,0.6782,0.2375,0.4625*
1,1,0.6782,0.2375,-0.4625*
1,1,0.6782,-0.2375,-0.4625*
%
%ADD14ROUNDEDRECTD14*%
%ADD15R,5.1032X1.4032*%
G04:AMPARAMS|DCode=16|XSize=0.7532mm|YSize=1.2032mm|CornerRadius=0.2391mm|HoleSize=0mm|Usage=FLASHONLY|Rotation=270.000|XOffset=0mm|YOffset=0mm|HoleType=Round|Shape=RoundedRectangle|*
%AMROUNDEDRECTD16*
21,1,0.7532,0.7250,0,0,270.0*
21,1,0.2750,1.2032,0,0,270.0*
1,1,0.4782,-0.3625,-0.1375*
1,1,0.4782,-0.3625,0.1375*
1,1,0.4782,0.3625,0.1375*
1,1,0.4782,0.3625,-0.1375*
%
%ADD16ROUNDEDRECTD16*%
G04:AMPARAMS|DCode=17|XSize=1.1032mm|YSize=1.2032mm|CornerRadius=0.3266mm|HoleSize=0mm|Usage=FLASHONLY|Rotation=270.000|XOffset=0mm|YOffset=0mm|HoleType=Round|Shape=RoundedRectangle|*
%AMROUNDEDRECTD17*
21,1,1.1032,0.5500,0,0,270.0*
21,1,0.4500,1.2032,0,0,270.0*
1,1,0.6532,-0.2750,-0.2250*
1,1,0.6532,-0.2750,0.2250*
1,1,0.6532,0.2750,0.2250*
1,1,0.6532,0.2750,-0.2250*
%
%ADD17ROUNDEDRECTD17*%
%ADD18O,0.6532X1.5532*%
G04:AMPARAMS|DCode=19|XSize=1.524mm|YSize=0.8128mm|CornerRadius=0.254mm|HoleSize=0mm|Usage=FLASHONLY|Rotation=180.000|XOffset=0mm|YOffset=0mm|HoleType=Round|Shape=RoundedRectangle|*
%AMROUNDEDRECTD19*
21,1,1.5240,0.3048,0,0,180.0*
21,1,1.0160,0.8128,0,0,180.0*
1,1,0.5080,-0.5080,0.1524*
1,1,0.5080,0.5080,0.1524*
1,1,0.5080,0.5080,-0.1524*
1,1,0.5080,-0.5080,-0.1524*
%
%ADD19ROUNDEDRECTD19*%
%ADD20R,0.6532X1.5532*%
%ADD21R,1.4732X0.8128*%
G04:AMPARAMS|DCode=22|XSize=1.1032mm|YSize=1.2032mm|CornerRadius=0.3266mm|HoleSize=0mm|Usage=FLASHONLY|Rotation=180.000|XOffset=0mm|YOffset=0mm|HoleType=Round|Shape=RoundedRectangle|*
%AMROUNDEDRECTD22*
21,1,1.1032,0.5500,0,0,180.0*
21,1,0.4500,1.2032,0,0,180.0*
1,1,0.6532,-0.2250,0.2750*
1,1,0.6532,0.2250,0.2750*
1,1,0.6532,0.2250,-0.2750*
1,1,0.6532,-0.2250,-0.2750*
%
%ADD22ROUNDEDRECTD22*%
%ADD23R,1.9032X1.9032*%
%ADD24C,1.9032*%
%ADD25C,1.7032*%
%ADD26R,1.7032X1.7032*%
%ADD27C,1.6032*%
%ADD28C,1.4732*%
%ADD29C,5.2032*%
G36*
X515193Y413721D02*
X524779Y423307D01*
Y436721D01*
X473778D01*
Y423307D01*
X483364Y413721D01*
X515193D01*
D02*
G37*
G36*
X483364Y470722D02*
X473778Y461136D01*
Y447721D01*
X524779D01*
Y461136D01*
X515193Y470722D01*
X483364D01*
D02*
G37*
G36*
X669193Y413721D02*
X678779Y423307D01*
Y436721D01*
X627779D01*
Y423307D01*
X637364Y413721D01*
X669193D01*
D02*
G37*
G36*
X637364Y470722D02*
X627779Y461136D01*
Y447721D01*
X678779D01*
Y461136D01*
X669193Y470722D01*
X637364D01*
D02*
G37*
D10*
X546778Y550971D02*
D03*
D11*
Y544472D02*
D03*
Y537971D02*
D03*
Y531471D02*
D03*
Y524972D02*
D03*
Y518471D02*
D03*
Y511972D02*
D03*
Y505471D02*
D03*
Y498971D02*
D03*
Y492472D02*
D03*
Y485971D02*
D03*
Y479472D02*
D03*
Y472971D02*
D03*
Y466471D02*
D03*
X605779D02*
D03*
Y472971D02*
D03*
Y479472D02*
D03*
Y485971D02*
D03*
Y492472D02*
D03*
Y498971D02*
D03*
Y505471D02*
D03*
Y511972D02*
D03*
Y518471D02*
D03*
Y524972D02*
D03*
Y531471D02*
D03*
Y537971D02*
D03*
Y544472D02*
D03*
Y550971D02*
D03*
D12*
X576278Y508722D02*
D03*
D13*
X587612Y387721D02*
D03*
Y367721D02*
D03*
X604278Y387721D02*
D03*
Y367721D02*
D03*
X554278Y387721D02*
D03*
Y367721D02*
D03*
X570945Y387721D02*
D03*
Y367721D02*
D03*
X607279Y562022D02*
D03*
Y582022D02*
D03*
X643279Y562022D02*
D03*
Y582022D02*
D03*
X625279D02*
D03*
Y562022D02*
D03*
X661279Y582022D02*
D03*
Y562022D02*
D03*
X527279Y528721D02*
D03*
Y548722D02*
D03*
X445000Y518000D02*
D03*
Y538000D02*
D03*
X425000Y518000D02*
D03*
Y538000D02*
D03*
X405000Y518000D02*
D03*
Y538000D02*
D03*
D14*
X658279Y541721D02*
D03*
X678279D02*
D03*
Y523722D02*
D03*
X658279D02*
D03*
X586278Y410722D02*
D03*
X606278D02*
D03*
X678279Y505721D02*
D03*
X658279D02*
D03*
X547279Y567721D02*
D03*
X567279D02*
D03*
X548279Y449721D02*
D03*
X568279D02*
D03*
X586279Y429721D02*
D03*
X566278D02*
D03*
X604278Y449721D02*
D03*
X584278D02*
D03*
X473000Y560000D02*
D03*
X493000D02*
D03*
X427000Y580000D02*
D03*
X447000D02*
D03*
Y560000D02*
D03*
X427000D02*
D03*
X473000Y633000D02*
D03*
X493000D02*
D03*
X473000Y580000D02*
D03*
X493000D02*
D03*
X428000Y633000D02*
D03*
X448000D02*
D03*
X473000Y540000D02*
D03*
X493000D02*
D03*
X381000Y632000D02*
D03*
X401000D02*
D03*
X423000Y497000D02*
D03*
X443000D02*
D03*
D15*
X499278Y454721D02*
D03*
Y429721D02*
D03*
X653279Y454721D02*
D03*
Y429721D02*
D03*
D16*
X380000Y616500D02*
D03*
Y607000D02*
D03*
Y597500D02*
D03*
X402000D02*
D03*
Y616500D02*
D03*
X449000D02*
D03*
Y597500D02*
D03*
X427000D02*
D03*
Y607000D02*
D03*
Y616500D02*
D03*
X494000D02*
D03*
Y597500D02*
D03*
X472000D02*
D03*
Y607000D02*
D03*
Y616500D02*
D03*
D17*
X420000Y380000D02*
D03*
X524000Y355000D02*
D03*
Y371000D02*
D03*
X402000Y463000D02*
D03*
Y447000D02*
D03*
X420000Y364000D02*
D03*
D18*
X438750Y431250D02*
D03*
Y476750D02*
D03*
X425750Y431250D02*
D03*
X432250D02*
D03*
X419250Y476750D02*
D03*
X425750D02*
D03*
X432250D02*
D03*
D19*
X446330Y384350D02*
D03*
Y397050D02*
D03*
X499670D02*
D03*
X446330Y358950D02*
D03*
X499670Y384350D02*
D03*
X446330Y371650D02*
D03*
X499670D02*
D03*
D20*
X419250Y431250D02*
D03*
D21*
X499670Y358950D02*
D03*
D22*
X360000Y498000D02*
D03*
X376000D02*
D03*
X320500Y548250D02*
D03*
X304500D02*
D03*
X360000Y473000D02*
D03*
X376000D02*
D03*
X320500Y523000D02*
D03*
X304500D02*
D03*
X360000Y448000D02*
D03*
X376000D02*
D03*
D23*
X702600Y304000D02*
D03*
D24*
Y329400D02*
D03*
X677200Y304000D02*
D03*
Y329400D02*
D03*
X651800Y304000D02*
D03*
Y329400D02*
D03*
X626400D02*
D03*
Y304000D02*
D03*
X601000Y329400D02*
D03*
Y304000D02*
D03*
X499400D02*
D03*
Y329400D02*
D03*
X524800Y304000D02*
D03*
Y329400D02*
D03*
X550200D02*
D03*
Y304000D02*
D03*
X575600Y329400D02*
D03*
Y304000D02*
D03*
X397800D02*
D03*
Y329400D02*
D03*
X423200Y304000D02*
D03*
Y329400D02*
D03*
X448600D02*
D03*
Y304000D02*
D03*
X474000Y329400D02*
D03*
Y304000D02*
D03*
X321600D02*
D03*
Y329400D02*
D03*
X347000D02*
D03*
Y304000D02*
D03*
X372400Y329400D02*
D03*
Y304000D02*
D03*
X296200Y329400D02*
D03*
Y304000D02*
D03*
D25*
X683622Y485708D02*
D03*
X630657Y364013D02*
D03*
D26*
X658622Y485708D02*
D03*
X655657Y364013D02*
D03*
D27*
X340093Y548301D02*
D03*
Y522901D02*
D03*
X263894D02*
D03*
Y548301D02*
D03*
X340000Y498400D02*
D03*
X263800D02*
D03*
X340000Y473000D02*
D03*
X263800D02*
D03*
X339907Y447600D02*
D03*
X263706D02*
D03*
D28*
X427000Y456500D02*
D03*
X406750Y380000D02*
D03*
X449500Y431250D02*
D03*
X473500Y646500D02*
D03*
X428250Y647500D02*
D03*
X392250Y648250D02*
D03*
X517350Y497900D02*
D03*
Y521177D02*
D03*
X535000Y441072D02*
D03*
X676924Y566544D02*
D03*
X576279Y508372D02*
D03*
X625279Y479721D02*
D03*
X618638Y406362D02*
D03*
X618279Y444721D02*
D03*
X584278Y465722D02*
D03*
X562929D02*
D03*
X518350Y573000D02*
D03*
X458000Y505000D02*
D03*
X436201Y592897D02*
D03*
X506000Y633000D02*
D03*
X459900D02*
D03*
X414900Y632000D02*
D03*
X460000Y551000D02*
D03*
X391000Y498000D02*
D03*
X524000Y388000D02*
D03*
X425000Y408000D02*
D03*
X464000Y365000D02*
D03*
D29*
X700000Y625000D02*
D03*
X300000D02*
D03*
Y375000D02*
D03*
X700000Y375000D02*
D03*
M02*
