M48
;Layer_Color=9474304
;FILE_FORMAT=4:4
METRIC,LZ
;TYPE=PLATED
T1F00S00C0.7112
T2F00S00C0.8000
T3F00S00C0.9000
T4F00S00C1.0000
T5F00S00C3.5000
%
T01
X0040675Y0038
X00464Y00365
X00524Y00388
X00535Y00441072
X00562929Y00465722
X00584278
X00576279Y00508372
X0051735Y004979
Y00521177
X0051835Y00573
X00506Y00633
X004735Y006465
X004599Y00633
X004149Y00632
X0042825Y006475
X00436201Y00592897
X0046Y00551
X00458Y00505
X00427Y004565
X004495Y0043125
X00425Y00408
X00618638Y00406362
X00618279Y00444721
X00625279Y00479721
X00676924Y00566544
X00391Y00498
X0039225Y0064825
T02
X00630657Y00364013
X00655657
X00658622Y00485708
X00683622
T03
X00263706Y004476
X002638Y00473
Y004984
X00263894Y00522901
Y00548301
X00340093
Y00522901
X0034Y004984
Y00473
X00339907Y004476
T04
X002962Y00304
X003216
Y003294
X00347
Y00304
X003724
Y003294
X002962
X003978
Y00304
X004232
Y003294
X004486
Y00304
X00474
X004994
Y003294
X005248
Y00304
X005502
Y003294
X005756
X00601
X006264
X006518
X006772
X007026
Y00304
X006772
X006518
X006264
X00601
X005756
X00474Y003294
T05
X003Y00375
X007Y00375
Y00625
X003
M30
