G04*
G04 #@! TF.GenerationSoftware,Altium Limited,Altium Designer,21.2.2 (38)*
G04*
G04 Layer_Color=16711935*
%FSLAX44Y44*%
%MOMM*%
G71*
G04*
G04 #@! TF.SameCoordinates,F90950B5-CE6C-4725-8A59-E2001084E966*
G04*
G04*
G04 #@! TF.FilePolarity,Negative*
G04*
G01*
G75*
G04:AMPARAMS|DCode=14|XSize=1.1032mm|YSize=1.2032mm|CornerRadius=0.3266mm|HoleSize=0mm|Usage=FLASHONLY|Rotation=270.000|XOffset=0mm|YOffset=0mm|HoleType=Round|Shape=RoundedRectangle|*
%AMROUNDEDRECTD14*
21,1,1.1032,0.5500,0,0,270.0*
21,1,0.4500,1.2032,0,0,270.0*
1,1,0.6532,-0.2750,-0.2250*
1,1,0.6532,-0.2750,0.2250*
1,1,0.6532,0.2750,0.2250*
1,1,0.6532,0.2750,-0.2250*
%
%ADD14ROUNDEDRECTD14*%
%ADD18C,1.7032*%
%ADD19R,1.9032X1.9032*%
%ADD20C,1.9032*%
%ADD21C,1.4732*%
D14*
X525000Y317000D02*
D03*
Y333000D02*
D03*
D18*
X452400Y405800D02*
D03*
X300000D02*
D03*
X452400Y380400D02*
D03*
X300000D02*
D03*
X452400Y355000D02*
D03*
X300000D02*
D03*
X452400Y583600D02*
D03*
X300000D02*
D03*
X452400Y609000D02*
D03*
X300000D02*
D03*
X452400Y634400D02*
D03*
X300000D02*
D03*
X700000Y380400D02*
D03*
Y355000D02*
D03*
X547600Y634400D02*
D03*
X700000D02*
D03*
X547600Y609000D02*
D03*
X700000D02*
D03*
X547600Y583600D02*
D03*
X700000D02*
D03*
X547600Y355000D02*
D03*
Y380400D02*
D03*
Y405800D02*
D03*
X700000D02*
D03*
D19*
X703972Y275000D02*
D03*
D20*
Y300400D02*
D03*
X678572Y275000D02*
D03*
Y300400D02*
D03*
X653172Y275000D02*
D03*
Y300400D02*
D03*
X627772D02*
D03*
Y275000D02*
D03*
X602372Y300400D02*
D03*
Y275000D02*
D03*
X500772D02*
D03*
Y300400D02*
D03*
X526172Y275000D02*
D03*
Y300400D02*
D03*
X551572D02*
D03*
Y275000D02*
D03*
X576972Y300400D02*
D03*
Y275000D02*
D03*
X399172D02*
D03*
Y300400D02*
D03*
X424572Y275000D02*
D03*
Y300400D02*
D03*
X449972D02*
D03*
Y275000D02*
D03*
X475372Y300400D02*
D03*
Y275000D02*
D03*
X322972D02*
D03*
Y300400D02*
D03*
X348372D02*
D03*
Y275000D02*
D03*
X373772Y300400D02*
D03*
Y275000D02*
D03*
X297572Y300400D02*
D03*
Y275000D02*
D03*
D21*
X510000Y465000D02*
D03*
M02*
