G04*
G04 #@! TF.GenerationSoftware,Altium Limited,Altium Designer,21.2.2 (38)*
G04*
G04 Layer_Physical_Order=1*
G04 Layer_Color=2441676*
%FSLAX44Y44*%
%MOMM*%
G71*
G04*
G04 #@! TF.SameCoordinates,F90950B5-CE6C-4725-8A59-E2001084E966*
G04*
G04*
G04 #@! TF.FilePolarity,Positive*
G04*
G01*
G75*
G04:AMPARAMS|DCode=22|XSize=1.5mm|YSize=1mm|CornerRadius=0.25mm|HoleSize=0mm|Usage=FLASHONLY|Rotation=180.000|XOffset=0mm|YOffset=0mm|HoleType=Round|Shape=RoundedRectangle|*
%AMROUNDEDRECTD22*
21,1,1.5000,0.5000,0,0,180.0*
21,1,1.0000,1.0000,0,0,180.0*
1,1,0.5000,-0.5000,0.2500*
1,1,0.5000,0.5000,0.2500*
1,1,0.5000,0.5000,-0.2500*
1,1,0.5000,-0.5000,-0.2500*
%
%ADD22ROUNDEDRECTD22*%
G04:AMPARAMS|DCode=23|XSize=1.778mm|YSize=1.778mm|CornerRadius=0.4445mm|HoleSize=0mm|Usage=FLASHONLY|Rotation=90.000|XOffset=0mm|YOffset=0mm|HoleType=Round|Shape=RoundedRectangle|*
%AMROUNDEDRECTD23*
21,1,1.7780,0.8890,0,0,90.0*
21,1,0.8890,1.7780,0,0,90.0*
1,1,0.8890,0.4445,0.4445*
1,1,0.8890,0.4445,-0.4445*
1,1,0.8890,-0.4445,-0.4445*
1,1,0.8890,-0.4445,0.4445*
%
%ADD23ROUNDEDRECTD23*%
G04:AMPARAMS|DCode=24|XSize=2mm|YSize=3mm|CornerRadius=0.5mm|HoleSize=0mm|Usage=FLASHONLY|Rotation=0.000|XOffset=0mm|YOffset=0mm|HoleType=Round|Shape=RoundedRectangle|*
%AMROUNDEDRECTD24*
21,1,2.0000,2.0000,0,0,0.0*
21,1,1.0000,3.0000,0,0,0.0*
1,1,1.0000,0.5000,-1.0000*
1,1,1.0000,-0.5000,-1.0000*
1,1,1.0000,-0.5000,1.0000*
1,1,1.0000,0.5000,1.0000*
%
%ADD24ROUNDEDRECTD24*%
G04:AMPARAMS|DCode=25|XSize=1.778mm|YSize=1.778mm|CornerRadius=0.4445mm|HoleSize=0mm|Usage=FLASHONLY|Rotation=180.000|XOffset=0mm|YOffset=0mm|HoleType=Round|Shape=RoundedRectangle|*
%AMROUNDEDRECTD25*
21,1,1.7780,0.8890,0,0,180.0*
21,1,0.8890,1.7780,0,0,180.0*
1,1,0.8890,-0.4445,0.4445*
1,1,0.8890,0.4445,0.4445*
1,1,0.8890,0.4445,-0.4445*
1,1,0.8890,-0.4445,-0.4445*
%
%ADD25ROUNDEDRECTD25*%
G04:AMPARAMS|DCode=26|XSize=0.9mm|YSize=1mm|CornerRadius=0.225mm|HoleSize=0mm|Usage=FLASHONLY|Rotation=270.000|XOffset=0mm|YOffset=0mm|HoleType=Round|Shape=RoundedRectangle|*
%AMROUNDEDRECTD26*
21,1,0.9000,0.5500,0,0,270.0*
21,1,0.4500,1.0000,0,0,270.0*
1,1,0.4500,-0.2750,-0.2250*
1,1,0.4500,-0.2750,0.2250*
1,1,0.4500,0.2750,0.2250*
1,1,0.4500,0.2750,-0.2250*
%
%ADD26ROUNDEDRECTD26*%
G04:AMPARAMS|DCode=27|XSize=1.25mm|YSize=1.2mm|CornerRadius=0.3mm|HoleSize=0mm|Usage=FLASHONLY|Rotation=180.000|XOffset=0mm|YOffset=0mm|HoleType=Round|Shape=RoundedRectangle|*
%AMROUNDEDRECTD27*
21,1,1.2500,0.6000,0,0,180.0*
21,1,0.6500,1.2000,0,0,180.0*
1,1,0.6000,-0.3250,0.3000*
1,1,0.6000,0.3250,0.3000*
1,1,0.6000,0.3250,-0.3000*
1,1,0.6000,-0.3250,-0.3000*
%
%ADD27ROUNDEDRECTD27*%
G04:AMPARAMS|DCode=28|XSize=1.75mm|YSize=1mm|CornerRadius=0.25mm|HoleSize=0mm|Usage=FLASHONLY|Rotation=180.000|XOffset=0mm|YOffset=0mm|HoleType=Round|Shape=RoundedRectangle|*
%AMROUNDEDRECTD28*
21,1,1.7500,0.5000,0,0,180.0*
21,1,1.2500,1.0000,0,0,180.0*
1,1,0.5000,-0.6250,0.2500*
1,1,0.5000,0.6250,0.2500*
1,1,0.5000,0.6250,-0.2500*
1,1,0.5000,-0.6250,-0.2500*
%
%ADD28ROUNDEDRECTD28*%
G04:AMPARAMS|DCode=29|XSize=0.9mm|YSize=1mm|CornerRadius=0.225mm|HoleSize=0mm|Usage=FLASHONLY|Rotation=0.000|XOffset=0mm|YOffset=0mm|HoleType=Round|Shape=RoundedRectangle|*
%AMROUNDEDRECTD29*
21,1,0.9000,0.5500,0,0,0.0*
21,1,0.4500,1.0000,0,0,0.0*
1,1,0.4500,0.2250,-0.2750*
1,1,0.4500,-0.2250,-0.2750*
1,1,0.4500,-0.2250,0.2750*
1,1,0.4500,0.2250,0.2750*
%
%ADD29ROUNDEDRECTD29*%
%ADD30C,1.0000*%
%ADD31C,0.5000*%
%ADD32C,0.2540*%
%ADD33C,1.5000*%
%ADD34R,1.7000X1.7000*%
%ADD35C,1.7000*%
%ADD36C,1.2700*%
G36*
X745000Y175000D02*
X255000D01*
Y665000D01*
X745000D01*
X745000Y175000D01*
D02*
G37*
%LPC*%
G36*
X399777Y662217D02*
X379460D01*
Y654286D01*
X379389Y654251D01*
X378190Y653798D01*
X375910Y654743D01*
X373300Y655086D01*
X363300D01*
X360690Y654743D01*
X358257Y653735D01*
X356168Y652132D01*
X354565Y650043D01*
X353557Y647610D01*
X353214Y645000D01*
Y625000D01*
X353557Y622389D01*
X354565Y619957D01*
X356168Y617868D01*
X358257Y616265D01*
X360690Y615257D01*
X363300Y614914D01*
X369122D01*
X377635Y606401D01*
X377717Y605775D01*
X378725Y603342D01*
X380328Y601253D01*
X381243Y600338D01*
X380872Y598913D01*
X379579Y597921D01*
X378417Y596406D01*
X377905Y595169D01*
X366278Y583542D01*
X364675Y581453D01*
X363667Y579021D01*
X363324Y576410D01*
Y572021D01*
X362229Y571181D01*
X360715Y569208D01*
X359763Y566911D01*
X359439Y564445D01*
Y555555D01*
X359763Y553089D01*
X360715Y550792D01*
X362229Y548819D01*
X363324Y547979D01*
Y542021D01*
X362229Y541181D01*
X360715Y539208D01*
X359763Y536911D01*
X359439Y534445D01*
Y525555D01*
X359763Y523089D01*
X360715Y520792D01*
X362229Y518819D01*
X364202Y517305D01*
X366499Y516353D01*
X368965Y516029D01*
X373117D01*
X380408Y508738D01*
X379922Y507565D01*
X330000D01*
X328042Y507307D01*
X326218Y506551D01*
X324651Y505349D01*
X315901Y496599D01*
X314699Y495032D01*
X313943Y493208D01*
X313685Y491250D01*
Y489773D01*
X312294Y488706D01*
X311012Y487034D01*
X310206Y485088D01*
X309931Y483000D01*
Y477000D01*
X310206Y474912D01*
X311012Y472966D01*
X312294Y471294D01*
X313685Y470227D01*
Y404783D01*
X310613Y401712D01*
X309475Y402369D01*
X310040Y404478D01*
Y404530D01*
X301270D01*
Y395760D01*
X301322D01*
X303431Y396325D01*
X304088Y395187D01*
X301769Y392867D01*
X301646Y392900D01*
X298354D01*
X295175Y392048D01*
X292325Y390402D01*
X289998Y388075D01*
X288352Y385225D01*
X287500Y382046D01*
Y378754D01*
X288352Y375575D01*
X289998Y372725D01*
X292325Y370397D01*
X292435Y370334D01*
Y365066D01*
X292325Y365003D01*
X289998Y362675D01*
X288352Y359825D01*
X287500Y356646D01*
Y353354D01*
X288352Y350175D01*
X289998Y347325D01*
X292325Y344997D01*
X295175Y343352D01*
X298354Y342500D01*
X301646D01*
X304825Y343352D01*
X307675Y344997D01*
X310002Y347325D01*
X311648Y350175D01*
X312500Y353354D01*
Y356646D01*
X311648Y359825D01*
X310002Y362675D01*
X307675Y365003D01*
X307565Y365066D01*
Y370334D01*
X307675Y370397D01*
X310002Y372725D01*
X311648Y375575D01*
X312500Y378754D01*
Y382046D01*
X312467Y382169D01*
X316309Y386011D01*
X317482Y385524D01*
X317482Y313900D01*
X317675Y312930D01*
X314683Y311203D01*
X312169Y308689D01*
X311005Y306673D01*
X309538D01*
X308375Y308689D01*
X305861Y311203D01*
X302783Y312980D01*
X299349Y313900D01*
X295795D01*
X292361Y312980D01*
X289283Y311203D01*
X286769Y308689D01*
X284992Y305611D01*
X284072Y302177D01*
Y298623D01*
X284992Y295189D01*
X286769Y292111D01*
X289283Y289597D01*
X291299Y288433D01*
Y286967D01*
X289283Y285803D01*
X286769Y283289D01*
X284992Y280211D01*
X284072Y276777D01*
Y273223D01*
X284992Y269789D01*
X286769Y266711D01*
X289283Y264197D01*
X292361Y262420D01*
X295795Y261500D01*
X299349D01*
X302783Y262420D01*
X305861Y264197D01*
X308375Y266711D01*
X309538Y268727D01*
X311005D01*
X312169Y266711D01*
X314683Y264197D01*
X317761Y262420D01*
X321194Y261500D01*
X324749D01*
X328183Y262420D01*
X331261Y264197D01*
X333774Y266711D01*
X334939Y268727D01*
X336405D01*
X337569Y266711D01*
X340083Y264197D01*
X343161Y262420D01*
X346595Y261500D01*
X350149D01*
X353583Y262420D01*
X356661Y264197D01*
X359174Y266711D01*
X360339Y268727D01*
X361805D01*
X362969Y266711D01*
X365483Y264197D01*
X368561Y262420D01*
X371995Y261500D01*
X375549D01*
X378983Y262420D01*
X382061Y264197D01*
X384575Y266711D01*
X385738Y268727D01*
X387205D01*
X388369Y266711D01*
X390883Y264197D01*
X393961Y262420D01*
X397394Y261500D01*
X400949D01*
X404383Y262420D01*
X407461Y264197D01*
X409975Y266711D01*
X411138Y268727D01*
X412605D01*
X413769Y266711D01*
X416283Y264197D01*
X419361Y262420D01*
X422794Y261500D01*
X426349D01*
X429783Y262420D01*
X432861Y264197D01*
X435374Y266711D01*
X436539Y268727D01*
X438005D01*
X439169Y266711D01*
X441683Y264197D01*
X444761Y262420D01*
X448195Y261500D01*
X451749D01*
X455183Y262420D01*
X458261Y264197D01*
X460774Y266711D01*
X462552Y269789D01*
X463288Y272536D01*
X464603D01*
X465084Y270739D01*
X466538Y268221D01*
X468593Y266166D01*
X471110Y264712D01*
X473918Y263960D01*
X474102D01*
Y275000D01*
Y286040D01*
X473918D01*
X471110Y285288D01*
X468593Y283834D01*
X466538Y281779D01*
X465084Y279261D01*
X464603Y277464D01*
X463288D01*
X462552Y280211D01*
X460774Y283289D01*
X458261Y285803D01*
X456245Y286967D01*
Y288433D01*
X458261Y289597D01*
X460774Y292111D01*
X462552Y295189D01*
X463288Y297936D01*
X464603D01*
X465084Y296139D01*
X466538Y293621D01*
X468593Y291566D01*
X471110Y290112D01*
X473918Y289360D01*
X474102D01*
Y300400D01*
Y311440D01*
X473918D01*
X471110Y310688D01*
X468593Y309234D01*
X466538Y307179D01*
X465084Y304661D01*
X464603Y302864D01*
X463288D01*
X462552Y305611D01*
X460774Y308689D01*
X458261Y311203D01*
X455183Y312980D01*
X451749Y313900D01*
X448195D01*
X444761Y312980D01*
X441683Y311203D01*
X439169Y308689D01*
X437392Y305611D01*
X436656Y302864D01*
X435341D01*
X434859Y304661D01*
X433406Y307179D01*
X431351Y309234D01*
X428833Y310688D01*
X426025Y311440D01*
X425842D01*
Y300400D01*
X423302D01*
Y311440D01*
X423118D01*
X422064Y311158D01*
X421331Y311800D01*
X421151Y312227D01*
X421629Y313383D01*
X422620Y314675D01*
X431069Y323124D01*
X432361Y324115D01*
X433553Y324609D01*
X435167Y324821D01*
X467840D01*
X469454Y324609D01*
X470647Y324115D01*
X471938Y323124D01*
X477323Y317739D01*
X478314Y316447D01*
X478808Y315255D01*
X479021Y313641D01*
Y311895D01*
X478013Y311122D01*
X476825Y311440D01*
X476642D01*
Y300400D01*
Y289360D01*
X476825D01*
X479633Y290112D01*
X482150Y291566D01*
X484206Y293621D01*
X485659Y296139D01*
X486141Y297936D01*
X487456D01*
X488192Y295189D01*
X489969Y292111D01*
X492483Y289597D01*
X495561Y287820D01*
X498308Y287084D01*
Y285769D01*
X496511Y285288D01*
X493993Y283834D01*
X491938Y281779D01*
X490484Y279261D01*
X489732Y276453D01*
Y276270D01*
X500772D01*
Y275000D01*
X502042D01*
Y263960D01*
X502225D01*
X505033Y264712D01*
X507551Y266166D01*
X509606Y268221D01*
X511059Y270739D01*
X511541Y272536D01*
X512856D01*
X513592Y269789D01*
X515369Y266711D01*
X517883Y264197D01*
X520961Y262420D01*
X524394Y261500D01*
X527949D01*
X531383Y262420D01*
X534461Y264197D01*
X536974Y266711D01*
X538139Y268727D01*
X539605D01*
X540769Y266711D01*
X543283Y264197D01*
X546361Y262420D01*
X549795Y261500D01*
X553349D01*
X556783Y262420D01*
X559861Y264197D01*
X562374Y266711D01*
X563539Y268727D01*
X565005D01*
X566169Y266711D01*
X568683Y264197D01*
X571761Y262420D01*
X575195Y261500D01*
X578749D01*
X582183Y262420D01*
X585261Y264197D01*
X587775Y266711D01*
X588938Y268727D01*
X590405D01*
X591569Y266711D01*
X594083Y264197D01*
X597161Y262420D01*
X600594Y261500D01*
X604149D01*
X607583Y262420D01*
X610661Y264197D01*
X613175Y266711D01*
X614338Y268727D01*
X615805D01*
X616969Y266711D01*
X619483Y264197D01*
X622561Y262420D01*
X625994Y261500D01*
X629549D01*
X632983Y262420D01*
X636061Y264197D01*
X638574Y266711D01*
X640352Y269789D01*
X641088Y272536D01*
X642403D01*
X642884Y270739D01*
X644338Y268221D01*
X646393Y266166D01*
X648911Y264712D01*
X651718Y263960D01*
X651902D01*
Y275000D01*
Y286040D01*
X651718D01*
X648911Y285288D01*
X646393Y283834D01*
X644338Y281779D01*
X642884Y279261D01*
X642403Y277464D01*
X641088D01*
X640352Y280211D01*
X638574Y283289D01*
X637858Y284006D01*
Y291394D01*
X638574Y292111D01*
X640352Y295189D01*
X641051Y297797D01*
X642274Y297917D01*
X642428Y297842D01*
X642884Y296139D01*
X644338Y293621D01*
X646393Y291566D01*
X648911Y290112D01*
X651718Y289360D01*
X651902D01*
Y300400D01*
X654442D01*
Y289360D01*
X654625D01*
X657433Y290112D01*
X659950Y291566D01*
X662006Y293621D01*
X663459Y296139D01*
X663941Y297936D01*
X665256D01*
X665992Y295189D01*
X667769Y292111D01*
X668485Y291394D01*
Y284006D01*
X667769Y283289D01*
X665992Y280211D01*
X665256Y277464D01*
X663941D01*
X663459Y279261D01*
X662006Y281779D01*
X659950Y283834D01*
X657433Y285288D01*
X654625Y286040D01*
X654442D01*
Y275000D01*
Y263960D01*
X654625D01*
X657433Y264712D01*
X659950Y266166D01*
X662006Y268221D01*
X663459Y270739D01*
X663941Y272536D01*
X665256D01*
X665992Y269789D01*
X667769Y266711D01*
X670283Y264197D01*
X673361Y262420D01*
X676795Y261500D01*
X680349D01*
X683783Y262420D01*
X686861Y264197D01*
X689202Y266538D01*
X690472Y266294D01*
Y261500D01*
X717472D01*
Y288500D01*
X712678D01*
X712434Y289770D01*
X714774Y292111D01*
X716552Y295189D01*
X717472Y298623D01*
Y302177D01*
X716552Y305611D01*
X714774Y308689D01*
X712261Y311203D01*
X709183Y312980D01*
X705749Y313900D01*
X702195D01*
X699142Y313082D01*
X698485Y314221D01*
X727132Y342868D01*
X728735Y344957D01*
X729743Y347389D01*
X730086Y350000D01*
Y408410D01*
X729743Y411021D01*
X728735Y413453D01*
X727132Y415542D01*
X680542Y462132D01*
X680542Y462132D01*
X675969Y466705D01*
X687132Y477868D01*
X688735Y479957D01*
X689743Y482389D01*
X689800Y482825D01*
X689813Y482857D01*
X690063Y484750D01*
Y484820D01*
X690086Y485000D01*
Y487000D01*
X690063Y487180D01*
Y489250D01*
X689813Y491143D01*
X689083Y492906D01*
X687921Y494421D01*
Y495579D01*
X689083Y497094D01*
X689813Y498857D01*
X690063Y500750D01*
Y502820D01*
X690086Y503000D01*
Y507750D01*
X689743Y510360D01*
X688836Y512549D01*
Y529000D01*
X688819Y529131D01*
Y533000D01*
X688544Y535088D01*
X687738Y537034D01*
X686456Y538706D01*
X684784Y539988D01*
X682838Y540794D01*
X680750Y541069D01*
X674250D01*
X672161Y540794D01*
X670453Y540086D01*
X653612D01*
X652771Y541181D01*
X650798Y542695D01*
X648501Y543647D01*
X646035Y543971D01*
X637145D01*
X634679Y543647D01*
X632382Y542695D01*
X630409Y541181D01*
X628895Y539208D01*
X627943Y536911D01*
X627618Y534445D01*
Y525555D01*
X627943Y523089D01*
X628895Y520792D01*
X630409Y518819D01*
X632382Y517305D01*
X634679Y516353D01*
X637145Y516029D01*
X646035D01*
X648501Y516353D01*
X650798Y517305D01*
X652771Y518819D01*
X653612Y519914D01*
X668664D01*
Y509000D01*
X669007Y506390D01*
X669914Y504201D01*
Y503000D01*
X669938Y502820D01*
Y500750D01*
X670187Y498857D01*
X670917Y497094D01*
X672079Y495579D01*
Y494421D01*
X670917Y492906D01*
X670187Y491143D01*
X669938Y489250D01*
Y489202D01*
X661705Y480969D01*
X612382Y530293D01*
Y534445D01*
X612057Y536911D01*
X611105Y539208D01*
X609591Y541181D01*
X608496Y542021D01*
Y547979D01*
X609591Y548819D01*
X611105Y550792D01*
X612057Y553089D01*
X612382Y555555D01*
Y563854D01*
X612386Y563890D01*
Y576122D01*
X616669Y580405D01*
X617906Y580917D01*
X619421Y582079D01*
X620579D01*
X622094Y580917D01*
X623331Y580405D01*
X627614Y576122D01*
Y563890D01*
X627618Y563854D01*
Y555555D01*
X627943Y553089D01*
X628895Y550792D01*
X630409Y548819D01*
X632382Y547305D01*
X634679Y546353D01*
X637145Y546029D01*
X646035D01*
X648501Y546353D01*
X650798Y547305D01*
X652771Y548819D01*
X654285Y550792D01*
X655237Y553089D01*
X655562Y555555D01*
Y564445D01*
X655237Y566911D01*
X654285Y569208D01*
X652771Y571181D01*
X650798Y572695D01*
X648501Y573647D01*
X647786Y573741D01*
Y580300D01*
X647443Y582910D01*
X646435Y585343D01*
X644832Y587432D01*
X638086Y594178D01*
Y616600D01*
X637743Y619211D01*
X636735Y621643D01*
X635132Y623732D01*
X634846Y624018D01*
Y625000D01*
X634846Y625000D01*
Y645000D01*
X634503Y647610D01*
X633495Y650043D01*
X631892Y652132D01*
X629803Y653735D01*
X627370Y654743D01*
X624760Y655086D01*
X614760D01*
X612150Y654743D01*
X609717Y653735D01*
X607628Y652132D01*
X606025Y650043D01*
X605017Y647610D01*
X604674Y645000D01*
Y625000D01*
X605017Y622389D01*
X606025Y619957D01*
X607628Y617868D01*
X609717Y616265D01*
X612150Y615257D01*
X614760Y614914D01*
X615977D01*
X616025Y614797D01*
X617628Y612708D01*
X617914Y612422D01*
Y600454D01*
X616644Y599606D01*
X616143Y599813D01*
X614250Y600062D01*
X612180D01*
X612000Y600086D01*
X611820Y600062D01*
X609750D01*
X607857Y599813D01*
X606094Y599083D01*
X604579Y597921D01*
X603417Y596406D01*
X602905Y595169D01*
X595168Y587432D01*
X593565Y585343D01*
X592557Y582910D01*
X592214Y580300D01*
Y573741D01*
X591499Y573647D01*
X589202Y572695D01*
X587229Y571181D01*
X585715Y569208D01*
X584763Y566911D01*
X584439Y564445D01*
Y555555D01*
X584763Y553089D01*
X585715Y550792D01*
X587229Y548819D01*
X588324Y547979D01*
Y542021D01*
X587229Y541181D01*
X585715Y539208D01*
X584763Y536911D01*
X584439Y534445D01*
Y525555D01*
X584763Y523089D01*
X585715Y520792D01*
X587229Y518819D01*
X589202Y517305D01*
X591499Y516353D01*
X593965Y516029D01*
X598117D01*
X654573Y459573D01*
X666278Y447868D01*
X666278Y447868D01*
X695475Y418671D01*
X695002Y417348D01*
X692325Y415802D01*
X689997Y413475D01*
X689934Y413365D01*
X620800D01*
X618842Y413107D01*
X617018Y412351D01*
X615451Y411149D01*
X615451Y411149D01*
X561316Y357014D01*
X559899Y357394D01*
X559248Y359825D01*
X557603Y362675D01*
X555275Y365003D01*
X552425Y366648D01*
X550953Y367043D01*
Y368357D01*
X552425Y368752D01*
X555275Y370397D01*
X557603Y372725D01*
X559248Y375575D01*
X560100Y378754D01*
Y382046D01*
X559248Y385225D01*
X557603Y388075D01*
X555275Y390402D01*
X552425Y392048D01*
X549246Y392900D01*
X545954D01*
X542775Y392048D01*
X539925Y390402D01*
X537598Y388075D01*
X535952Y385225D01*
X535100Y382046D01*
Y381198D01*
X532300Y378398D01*
X456958Y453740D01*
X457444Y454914D01*
X504770D01*
X505619Y454423D01*
X508506Y453650D01*
X511494D01*
X514381Y454423D01*
X516969Y455918D01*
X519082Y458031D01*
X520577Y460619D01*
X521350Y463506D01*
Y466494D01*
X520577Y469381D01*
X519082Y471969D01*
X516969Y474082D01*
X514381Y475577D01*
X511494Y476350D01*
X508506D01*
X505619Y475577D01*
X504770Y475086D01*
X456010D01*
X455524Y476260D01*
X457132Y477868D01*
X458735Y479957D01*
X459743Y482389D01*
X459800Y482825D01*
X459813Y482857D01*
X460062Y484750D01*
Y484820D01*
X460086Y485000D01*
Y487000D01*
X460062Y487180D01*
Y489250D01*
X459813Y491143D01*
X459083Y492906D01*
X458134Y494142D01*
X458007Y495000D01*
X458134Y495858D01*
X459083Y497094D01*
X459813Y498857D01*
X460062Y500750D01*
Y505250D01*
X459813Y507143D01*
X459083Y508906D01*
X457921Y510421D01*
X457586Y510677D01*
Y529000D01*
X457569Y529131D01*
Y533000D01*
X457294Y535088D01*
X456488Y537034D01*
X455206Y538706D01*
X453535Y539988D01*
X451588Y540794D01*
X449500Y541069D01*
X443000D01*
X440912Y540794D01*
X439203Y540086D01*
X428611D01*
X427771Y541181D01*
X425798Y542695D01*
X423501Y543647D01*
X421035Y543971D01*
X412145D01*
X409679Y543647D01*
X407382Y542695D01*
X405409Y541181D01*
X403895Y539208D01*
X402943Y536911D01*
X402618Y534445D01*
Y525555D01*
X402943Y523089D01*
X403644Y521396D01*
X402901Y520126D01*
X397548D01*
X387382Y530293D01*
Y534445D01*
X387057Y536911D01*
X386105Y539208D01*
X384591Y541181D01*
X383496Y542021D01*
Y547979D01*
X384591Y548819D01*
X386105Y550792D01*
X387057Y553089D01*
X387382Y555555D01*
Y564445D01*
X387057Y566911D01*
X386105Y569208D01*
X384591Y571181D01*
X384393Y571334D01*
X384283Y573019D01*
X391669Y580405D01*
X392906Y580917D01*
X394421Y582079D01*
X395579D01*
X397094Y580917D01*
X398331Y580405D01*
X402614Y576122D01*
Y563890D01*
X402618Y563854D01*
Y555555D01*
X402943Y553089D01*
X403895Y550792D01*
X405409Y548819D01*
X407382Y547305D01*
X409679Y546353D01*
X412145Y546029D01*
X421035D01*
X423501Y546353D01*
X425798Y547305D01*
X427771Y548819D01*
X429285Y550792D01*
X430237Y553089D01*
X430561Y555555D01*
Y564445D01*
X430237Y566911D01*
X429285Y569208D01*
X427771Y571181D01*
X425798Y572695D01*
X423501Y573647D01*
X422786Y573741D01*
Y580300D01*
X422495Y582511D01*
X423669Y583133D01*
X428551Y578251D01*
X428551Y578251D01*
X430118Y577049D01*
X431942Y576293D01*
X433900Y576035D01*
X442334D01*
X442397Y575925D01*
X444725Y573597D01*
X447575Y571952D01*
X450754Y571100D01*
X454046D01*
X457225Y571952D01*
X460075Y573597D01*
X462402Y575925D01*
X462466Y576035D01*
X467597D01*
X467687Y575357D01*
X468417Y573594D01*
X469579Y572079D01*
X471094Y570917D01*
X472857Y570187D01*
X474750Y569938D01*
X479250D01*
X481143Y570187D01*
X482906Y570917D01*
X484142Y571866D01*
X484594Y571933D01*
X485810Y571091D01*
Y539485D01*
X484794Y538706D01*
X483512Y537034D01*
X482706Y535088D01*
X482431Y533000D01*
Y527000D01*
X482706Y524912D01*
X483512Y522966D01*
X484794Y521294D01*
X486465Y520012D01*
X488412Y519206D01*
X490500Y518931D01*
X497000D01*
X499088Y519206D01*
X501035Y520012D01*
X502706Y521294D01*
X503988Y522966D01*
X504794Y524912D01*
X505069Y527000D01*
Y533000D01*
X504794Y535088D01*
X503988Y537034D01*
X502706Y538706D01*
X501035Y539988D01*
X500940Y540027D01*
Y572756D01*
X501583Y573594D01*
X502313Y575357D01*
X502562Y577250D01*
Y582750D01*
X502313Y584643D01*
X501583Y586406D01*
X500421Y587921D01*
X498906Y589083D01*
X497143Y589813D01*
X495250Y590062D01*
X490750D01*
X488857Y589813D01*
X487094Y589083D01*
X485858Y588134D01*
X485000Y588007D01*
X484142Y588134D01*
X482906Y589083D01*
X481143Y589813D01*
X479250Y590062D01*
X477798D01*
X477682Y590151D01*
X475858Y590907D01*
X473900Y591165D01*
X462466D01*
X462402Y591275D01*
X460075Y593602D01*
X457225Y595248D01*
X454046Y596100D01*
X450754D01*
X447575Y595248D01*
X444725Y593602D01*
X442397Y591275D01*
X442334Y591165D01*
X437033D01*
X410062Y618136D01*
Y619250D01*
X409813Y621143D01*
X409083Y622906D01*
X408117Y624165D01*
X408388Y625041D01*
X408685Y625435D01*
X417267D01*
X418594Y624417D01*
X419058Y624225D01*
X419182Y622961D01*
X418797Y622703D01*
X417738Y621119D01*
X417366Y619250D01*
Y618270D01*
X425000D01*
X432634D01*
Y619250D01*
X432262Y621119D01*
X431203Y622703D01*
X430818Y622961D01*
X430942Y624225D01*
X431406Y624417D01*
X432921Y625579D01*
X433347Y626135D01*
X442987D01*
X444725Y624398D01*
X447575Y622752D01*
X450754Y621900D01*
X454046D01*
X457225Y622752D01*
X460075Y624398D01*
X462402Y626725D01*
X464048Y629575D01*
X464900Y632754D01*
Y636046D01*
X464048Y639225D01*
X462402Y642075D01*
X460075Y644402D01*
X457225Y646048D01*
X454046Y646900D01*
X450754D01*
X447575Y646048D01*
X444725Y644402D01*
X442397Y642075D01*
X441930Y641265D01*
X431821D01*
X431406Y641583D01*
X429643Y642313D01*
X427750Y642562D01*
X422250D01*
X420357Y642313D01*
X418594Y641583D01*
X417267Y640565D01*
X407733D01*
X406406Y641583D01*
X404643Y642313D01*
X402750Y642562D01*
X399777D01*
Y662217D01*
D02*
G37*
G36*
X701646Y646900D02*
X698354D01*
X695175Y646048D01*
X692325Y644402D01*
X689997Y642075D01*
X689530Y641265D01*
X681821D01*
X681406Y641583D01*
X679643Y642313D01*
X677750Y642562D01*
X672250D01*
X670357Y642313D01*
X668594Y641583D01*
X667267Y640565D01*
X657733D01*
X656406Y641583D01*
X654643Y642313D01*
X652750Y642562D01*
X647250D01*
X645357Y642313D01*
X643594Y641583D01*
X642079Y640421D01*
X640917Y638906D01*
X640187Y637143D01*
X639938Y635250D01*
Y630750D01*
X640187Y628857D01*
X640917Y627094D01*
X642079Y625579D01*
X643594Y624417D01*
X644058Y624225D01*
X644182Y622961D01*
X643797Y622703D01*
X642738Y621119D01*
X642366Y619250D01*
Y618270D01*
X650000D01*
Y617000D01*
D01*
Y618270D01*
X657634D01*
Y619250D01*
X657262Y621119D01*
X656203Y622703D01*
X655818Y622961D01*
X655942Y624225D01*
X656406Y624417D01*
X657733Y625435D01*
X666315D01*
X666612Y625041D01*
X666878Y624182D01*
X666866Y624142D01*
X665917Y622906D01*
X665187Y621143D01*
X664938Y619250D01*
Y614750D01*
X665187Y612857D01*
X665917Y611094D01*
X667079Y609579D01*
X668594Y608417D01*
X670357Y607687D01*
X672250Y607437D01*
X677750D01*
X679643Y607687D01*
X681406Y608417D01*
X682733Y609435D01*
X686161D01*
X687500Y608096D01*
Y607354D01*
X688352Y604175D01*
X689997Y601325D01*
X692325Y598997D01*
X695175Y597352D01*
X698193Y596543D01*
X699923Y594813D01*
X699436Y593640D01*
X698678D01*
X696125Y592956D01*
X693835Y591634D01*
X691966Y589765D01*
X690644Y587475D01*
X689960Y584922D01*
Y584870D01*
X700000D01*
Y583600D01*
X701270D01*
Y573560D01*
X701322D01*
X703875Y574244D01*
X706165Y575566D01*
X708034Y577435D01*
X709356Y579725D01*
X710040Y582278D01*
Y583036D01*
X711213Y583523D01*
X714914Y579822D01*
Y575000D01*
X714938Y574820D01*
Y572750D01*
X715187Y570857D01*
X715917Y569094D01*
X716866Y567858D01*
X716993Y567000D01*
X716866Y566142D01*
X715917Y564906D01*
X715187Y563143D01*
X714938Y561250D01*
Y559180D01*
X714914Y559000D01*
Y537232D01*
X714762Y537034D01*
X713956Y535088D01*
X713681Y533000D01*
Y527000D01*
X713956Y524912D01*
X714762Y522966D01*
X716044Y521294D01*
X717715Y520012D01*
X719661Y519206D01*
X721750Y518931D01*
X728250D01*
X730338Y519206D01*
X732284Y520012D01*
X733956Y521294D01*
X735238Y522966D01*
X736044Y524912D01*
X736319Y527000D01*
Y533000D01*
X736044Y535088D01*
X735238Y537034D01*
X735086Y537232D01*
Y559000D01*
X735062Y559180D01*
Y561250D01*
X734813Y563143D01*
X734083Y564906D01*
X733134Y566142D01*
X733007Y567000D01*
X733134Y567858D01*
X734083Y569094D01*
X734813Y570857D01*
X735062Y572750D01*
Y574820D01*
X735086Y575000D01*
Y584000D01*
X734743Y586610D01*
X733735Y589043D01*
X732132Y591132D01*
X712457Y610807D01*
X711648Y613825D01*
X710003Y616675D01*
X707675Y619002D01*
X704825Y620648D01*
X703353Y621043D01*
Y622357D01*
X704825Y622752D01*
X707675Y624398D01*
X710003Y626725D01*
X711648Y629575D01*
X712500Y632754D01*
Y636046D01*
X711648Y639225D01*
X710003Y642075D01*
X707675Y644402D01*
X704825Y646048D01*
X701646Y646900D01*
D02*
G37*
G36*
X586660Y652605D02*
X582930D01*
Y636270D01*
X594265D01*
Y645000D01*
X594006Y646968D01*
X593246Y648802D01*
X592038Y650378D01*
X590462Y651586D01*
X588628Y652346D01*
X586660Y652605D01*
D02*
G37*
G36*
X580390D02*
X576660D01*
X574692Y652346D01*
X572858Y651586D01*
X571282Y650378D01*
X570074Y648802D01*
X569314Y646968D01*
X569055Y645000D01*
Y636270D01*
X580390D01*
Y652605D01*
D02*
G37*
G36*
X335200D02*
X331470D01*
Y636270D01*
X342805D01*
Y645000D01*
X342546Y646968D01*
X341786Y648802D01*
X340578Y650378D01*
X339002Y651586D01*
X337168Y652346D01*
X335200Y652605D01*
D02*
G37*
G36*
X328930D02*
X325200D01*
X323232Y652346D01*
X321398Y651586D01*
X319822Y650378D01*
X318614Y648802D01*
X317854Y646968D01*
X317595Y645000D01*
Y636270D01*
X328930D01*
Y652605D01*
D02*
G37*
G36*
X301322Y644440D02*
X301270D01*
Y635670D01*
X310040D01*
Y635722D01*
X309356Y638275D01*
X308034Y640565D01*
X306165Y642434D01*
X303875Y643756D01*
X301322Y644440D01*
D02*
G37*
G36*
X298730D02*
X298678D01*
X296125Y643756D01*
X293835Y642434D01*
X291966Y640565D01*
X290644Y638275D01*
X289960Y635722D01*
Y635670D01*
X298730D01*
Y644440D01*
D02*
G37*
G36*
X566698Y662217D02*
X546382D01*
Y644440D01*
X546278D01*
X543725Y643756D01*
X541435Y642434D01*
X539566Y640565D01*
X538244Y638275D01*
X537560Y635722D01*
Y635670D01*
X547600D01*
X557640D01*
Y635722D01*
X556956Y638275D01*
X555634Y640565D01*
X555472Y640727D01*
X555958Y641900D01*
X566698D01*
Y662217D01*
D02*
G37*
G36*
X557640Y633130D02*
X548870D01*
Y624360D01*
X548922D01*
X551475Y625044D01*
X553765Y626366D01*
X555634Y628235D01*
X556956Y630525D01*
X557640Y633078D01*
Y633130D01*
D02*
G37*
G36*
X546330D02*
X537560D01*
Y633078D01*
X538244Y630525D01*
X539566Y628235D01*
X541435Y626366D01*
X543725Y625044D01*
X546278Y624360D01*
X546330D01*
Y633130D01*
D02*
G37*
G36*
X310040Y633130D02*
X301270D01*
Y624360D01*
X301322D01*
X303875Y625044D01*
X306165Y626366D01*
X308034Y628235D01*
X309356Y630525D01*
X310040Y633078D01*
Y633130D01*
D02*
G37*
G36*
X298730D02*
X289960D01*
Y633078D01*
X290644Y630525D01*
X291966Y628235D01*
X293835Y626366D01*
X296125Y625044D01*
X298678Y624360D01*
X298730D01*
Y633130D01*
D02*
G37*
G36*
X594265Y633730D02*
X582930D01*
Y617395D01*
X586660D01*
X588628Y617654D01*
X590462Y618414D01*
X592038Y619622D01*
X593246Y621198D01*
X594006Y623032D01*
X594265Y625000D01*
Y633730D01*
D02*
G37*
G36*
X580390D02*
X569055D01*
Y625000D01*
X569314Y623032D01*
X570074Y621198D01*
X571282Y619622D01*
X572858Y618414D01*
X574692Y617654D01*
X576660Y617395D01*
X580390D01*
Y633730D01*
D02*
G37*
G36*
X342805D02*
X331470D01*
Y617395D01*
X335200D01*
X337168Y617654D01*
X339002Y618414D01*
X340578Y619622D01*
X341786Y621198D01*
X342546Y623032D01*
X342805Y625000D01*
Y633730D01*
D02*
G37*
G36*
X328930D02*
X317595D01*
Y625000D01*
X317854Y623032D01*
X318614Y621198D01*
X319822Y619622D01*
X321398Y618414D01*
X323232Y617654D01*
X325200Y617395D01*
X328930D01*
Y633730D01*
D02*
G37*
G36*
X453722Y619040D02*
X453670D01*
Y610270D01*
X462440D01*
Y610322D01*
X461756Y612875D01*
X460434Y615165D01*
X458565Y617034D01*
X456275Y618356D01*
X453722Y619040D01*
D02*
G37*
G36*
X451130D02*
X451078D01*
X448525Y618356D01*
X446235Y617034D01*
X444366Y615165D01*
X443044Y612875D01*
X442360Y610322D01*
Y610270D01*
X451130D01*
Y619040D01*
D02*
G37*
G36*
X657634Y615730D02*
X651270D01*
Y609866D01*
X652750D01*
X654619Y610238D01*
X656203Y611297D01*
X657262Y612881D01*
X657634Y614750D01*
Y615730D01*
D02*
G37*
G36*
X648730D02*
X642366D01*
Y614750D01*
X642738Y612881D01*
X643797Y611297D01*
X645381Y610238D01*
X647250Y609866D01*
X648730D01*
Y615730D01*
D02*
G37*
G36*
X432634Y615730D02*
X426270D01*
Y609866D01*
X427750D01*
X429619Y610238D01*
X431203Y611297D01*
X432262Y612881D01*
X432634Y614750D01*
Y615730D01*
D02*
G37*
G36*
X423730D02*
X417366D01*
Y614750D01*
X417738Y612881D01*
X418797Y611297D01*
X420381Y610238D01*
X422250Y609866D01*
X423730D01*
Y615730D01*
D02*
G37*
G36*
X462440Y607730D02*
X453670D01*
Y598960D01*
X453722D01*
X456275Y599644D01*
X458565Y600966D01*
X460434Y602835D01*
X461756Y605125D01*
X462440Y607678D01*
Y607730D01*
D02*
G37*
G36*
X451130D02*
X442360D01*
Y607678D01*
X443044Y605125D01*
X444366Y602835D01*
X446235Y600966D01*
X448525Y599644D01*
X451078Y598960D01*
X451130D01*
Y607730D01*
D02*
G37*
G36*
X698730Y582330D02*
X689960D01*
Y582278D01*
X690644Y579725D01*
X691966Y577435D01*
X693835Y575566D01*
X696125Y574244D01*
X698678Y573560D01*
X698730D01*
Y582330D01*
D02*
G37*
G36*
X549246Y621500D02*
X545954D01*
X542775Y620648D01*
X539925Y619002D01*
X537598Y616675D01*
X535952Y613825D01*
X535100Y610646D01*
Y607354D01*
X535952Y604175D01*
X537598Y601325D01*
X539925Y598997D01*
X542775Y597352D01*
X544247Y596957D01*
Y595643D01*
X542775Y595248D01*
X539925Y593602D01*
X537598Y591275D01*
X535952Y588425D01*
X535100Y585246D01*
Y581954D01*
X535952Y578775D01*
X537598Y575925D01*
X539925Y573597D01*
X542775Y571952D01*
X545954Y571100D01*
X549246D01*
X552425Y571952D01*
X555275Y573597D01*
X557603Y575925D01*
X559248Y578775D01*
X560100Y581954D01*
Y585246D01*
X559248Y588425D01*
X557603Y591275D01*
X555275Y593602D01*
X552425Y595248D01*
X550953Y595643D01*
Y596957D01*
X552425Y597352D01*
X555275Y598997D01*
X557603Y601325D01*
X559248Y604175D01*
X560100Y607354D01*
Y610646D01*
X559248Y613825D01*
X557603Y616675D01*
X555275Y619002D01*
X552425Y620648D01*
X549246Y621500D01*
D02*
G37*
G36*
X301646D02*
X298354D01*
X295175Y620648D01*
X292325Y619002D01*
X289998Y616675D01*
X288352Y613825D01*
X287500Y610646D01*
Y607354D01*
X288352Y604175D01*
X289998Y601325D01*
X292325Y598997D01*
X295175Y597352D01*
X296647Y596957D01*
Y595643D01*
X295175Y595248D01*
X292325Y593602D01*
X289998Y591275D01*
X288352Y588425D01*
X287500Y585246D01*
Y581954D01*
X288352Y578775D01*
X289998Y575925D01*
X292325Y573597D01*
X295175Y571952D01*
X298354Y571100D01*
X301646D01*
X304825Y571952D01*
X307675Y573597D01*
X310002Y575925D01*
X311648Y578775D01*
X312500Y581954D01*
Y585246D01*
X311648Y588425D01*
X310002Y591275D01*
X307675Y593602D01*
X304825Y595248D01*
X303353Y595643D01*
Y596957D01*
X304825Y597352D01*
X307675Y598997D01*
X310002Y601325D01*
X311648Y604175D01*
X312500Y607354D01*
Y610646D01*
X311648Y613825D01*
X310002Y616675D01*
X307675Y619002D01*
X304825Y620648D01*
X301646Y621500D01*
D02*
G37*
G36*
X706250Y545639D02*
X702520D01*
Y539270D01*
X711389D01*
Y540500D01*
X710997Y542467D01*
X709884Y544134D01*
X708216Y545248D01*
X706250Y545639D01*
D02*
G37*
G36*
X475000D02*
X471270D01*
Y539270D01*
X480139D01*
Y540500D01*
X479748Y542467D01*
X478634Y544134D01*
X476967Y545248D01*
X475000Y545639D01*
D02*
G37*
G36*
X468730D02*
X465000D01*
X463033Y545248D01*
X461366Y544134D01*
X460252Y542467D01*
X459861Y540500D01*
Y539270D01*
X468730D01*
Y545639D01*
D02*
G37*
G36*
X699980D02*
X696250D01*
X694284Y545248D01*
X692616Y544134D01*
X691502Y542467D01*
X691111Y540500D01*
Y539270D01*
X699980D01*
Y545639D01*
D02*
G37*
G36*
X480139Y536730D02*
X470000D01*
X459861D01*
Y535500D01*
X460252Y533534D01*
X461366Y531866D01*
X463033Y530752D01*
X463561Y530648D01*
Y529353D01*
X463033Y529248D01*
X461366Y528134D01*
X460252Y526466D01*
X459861Y524500D01*
Y523270D01*
X470000D01*
X480139D01*
Y524500D01*
X479748Y526466D01*
X478634Y528134D01*
X476967Y529248D01*
X476439Y529353D01*
Y530648D01*
X476967Y530752D01*
X478634Y531866D01*
X479748Y533534D01*
X480139Y535500D01*
Y536730D01*
D02*
G37*
G36*
X711389D02*
X701250D01*
X691111D01*
Y535500D01*
X691502Y533534D01*
X692616Y531866D01*
X694284Y530752D01*
X694811Y530648D01*
Y529353D01*
X694284Y529248D01*
X692616Y528134D01*
X691502Y526466D01*
X691111Y524500D01*
Y523270D01*
X701250D01*
X711389D01*
Y524500D01*
X710997Y526466D01*
X709884Y528134D01*
X708216Y529248D01*
X707689Y529353D01*
Y530648D01*
X708216Y530752D01*
X709884Y531866D01*
X710997Y533534D01*
X711389Y535500D01*
Y536730D01*
D02*
G37*
G36*
Y520730D02*
X702520D01*
Y514361D01*
X706250D01*
X708216Y514752D01*
X709884Y515866D01*
X710997Y517533D01*
X711389Y519500D01*
Y520730D01*
D02*
G37*
G36*
X699980D02*
X691111D01*
Y519500D01*
X691502Y517533D01*
X692616Y515866D01*
X694284Y514752D01*
X696250Y514361D01*
X699980D01*
Y520730D01*
D02*
G37*
G36*
X480139D02*
X471270D01*
Y514361D01*
X475000D01*
X476967Y514752D01*
X478634Y515866D01*
X479748Y517533D01*
X480139Y519500D01*
Y520730D01*
D02*
G37*
G36*
X468730D02*
X459861D01*
Y519500D01*
X460252Y517533D01*
X461366Y515866D01*
X463033Y514752D01*
X465000Y514361D01*
X468730D01*
Y520730D01*
D02*
G37*
G36*
X301322Y415840D02*
X301270D01*
Y407070D01*
X310040D01*
Y407122D01*
X309356Y409675D01*
X308034Y411965D01*
X306165Y413834D01*
X303875Y415156D01*
X301322Y415840D01*
D02*
G37*
G36*
X298730D02*
X298678D01*
X296125Y415156D01*
X293835Y413834D01*
X291966Y411965D01*
X290644Y409675D01*
X289960Y407122D01*
Y407070D01*
X298730D01*
Y415840D01*
D02*
G37*
G36*
X548922D02*
X548870D01*
Y407070D01*
X557640D01*
Y407122D01*
X556956Y409675D01*
X555634Y411965D01*
X553765Y413834D01*
X551475Y415156D01*
X548922Y415840D01*
D02*
G37*
G36*
X546330D02*
X546278D01*
X543725Y415156D01*
X541435Y413834D01*
X539566Y411965D01*
X538244Y409675D01*
X537560Y407122D01*
Y407070D01*
X546330D01*
Y415840D01*
D02*
G37*
G36*
X557640Y404530D02*
X548870D01*
Y395760D01*
X548922D01*
X551475Y396444D01*
X553765Y397766D01*
X555634Y399635D01*
X556956Y401925D01*
X557640Y404478D01*
Y404530D01*
D02*
G37*
G36*
X546330D02*
X537560D01*
Y404478D01*
X538244Y401925D01*
X539566Y399635D01*
X541435Y397766D01*
X543725Y396444D01*
X546278Y395760D01*
X546330D01*
Y404530D01*
D02*
G37*
G36*
X298730Y404530D02*
X289960D01*
Y404478D01*
X290644Y401925D01*
X291966Y399635D01*
X293835Y397766D01*
X296125Y396444D01*
X298678Y395760D01*
X298730D01*
Y404530D01*
D02*
G37*
G36*
X476825Y286040D02*
X476642D01*
Y276270D01*
X486412D01*
Y276453D01*
X485659Y279261D01*
X484206Y281779D01*
X482150Y283834D01*
X479633Y285288D01*
X476825Y286040D01*
D02*
G37*
G36*
X499502Y273730D02*
X489732D01*
Y273547D01*
X490484Y270739D01*
X491938Y268221D01*
X493993Y266166D01*
X496511Y264712D01*
X499318Y263960D01*
X499502D01*
Y273730D01*
D02*
G37*
G36*
X486412D02*
X476642D01*
Y263960D01*
X476825D01*
X479633Y264712D01*
X482150Y266166D01*
X484206Y268221D01*
X485659Y270739D01*
X486412Y273547D01*
Y273730D01*
D02*
G37*
%LPD*%
G36*
X362545Y490435D02*
X361465Y489988D01*
X359794Y488706D01*
X358512Y487034D01*
X357706Y485088D01*
X357431Y483000D01*
Y477000D01*
X357706Y474912D01*
X358512Y472966D01*
X359794Y471294D01*
X361465Y470012D01*
X363412Y469206D01*
X365500Y468931D01*
X372000D01*
X374088Y469206D01*
X376035Y470012D01*
X377706Y471294D01*
X377814Y471435D01*
X391422D01*
X392079Y469421D01*
X390917Y467906D01*
X390187Y466143D01*
X389937Y464250D01*
Y459750D01*
X390187Y457857D01*
X390917Y456094D01*
X392079Y454579D01*
X392435Y454306D01*
Y449966D01*
X390792Y449285D01*
X388819Y447771D01*
X387305Y445798D01*
X386624Y444155D01*
X378376D01*
X377695Y445798D01*
X376181Y447771D01*
X374208Y449285D01*
X371911Y450237D01*
X369445Y450561D01*
X360555D01*
X358089Y450237D01*
X355792Y449285D01*
X353819Y447771D01*
X352305Y445798D01*
X351353Y443501D01*
X351029Y441035D01*
Y432145D01*
X351353Y429679D01*
X352305Y427382D01*
X353819Y425409D01*
X355792Y423895D01*
X358089Y422943D01*
X360555Y422618D01*
X369445D01*
X371911Y422943D01*
X374208Y423895D01*
X376181Y425409D01*
X377695Y427382D01*
X378376Y429025D01*
X386624D01*
X387305Y427382D01*
X388819Y425409D01*
X390792Y423895D01*
X393089Y422943D01*
X395555Y422618D01*
X404445D01*
X406911Y422943D01*
X409208Y423895D01*
X411181Y425409D01*
X412695Y427382D01*
X413647Y429679D01*
X413971Y432145D01*
Y441035D01*
X413647Y443501D01*
X412695Y445798D01*
X411181Y447771D01*
X409208Y449285D01*
X407565Y449966D01*
Y454306D01*
X407921Y454579D01*
X409083Y456094D01*
X409813Y457857D01*
X410062Y459750D01*
Y464250D01*
X409813Y466143D01*
X409083Y467906D01*
X407921Y469421D01*
Y470579D01*
X409083Y472094D01*
X409813Y473857D01*
X410062Y475750D01*
Y476626D01*
X411910Y477392D01*
X474089Y415213D01*
X473324Y413365D01*
X462466D01*
X462402Y413475D01*
X460075Y415802D01*
X457225Y417448D01*
X454046Y418300D01*
X450754D01*
X447575Y417448D01*
X444725Y415802D01*
X442397Y413475D01*
X440752Y410625D01*
X439900Y407446D01*
Y404154D01*
X440752Y400975D01*
X442397Y398125D01*
X444725Y395798D01*
X447575Y394152D01*
X450754Y393300D01*
X454046D01*
X457225Y394152D01*
X460075Y395798D01*
X462402Y398125D01*
X462466Y398235D01*
X474987D01*
X538571Y334651D01*
X538571Y334651D01*
X540138Y333449D01*
X541962Y332693D01*
X543920Y332435D01*
X555000D01*
X556958Y332693D01*
X558782Y333449D01*
X560349Y334651D01*
X623933Y398235D01*
X689934D01*
X689997Y398125D01*
X692325Y395798D01*
X695175Y394152D01*
X698354Y393300D01*
X701646D01*
X704825Y394152D01*
X707675Y395798D01*
X708066Y396188D01*
X709914Y395423D01*
Y387309D01*
X708454Y386731D01*
X707914Y386685D01*
X706165Y388434D01*
X703875Y389756D01*
X701322Y390440D01*
X701270D01*
Y380400D01*
Y370360D01*
X701322D01*
X703875Y371044D01*
X706165Y372366D01*
X707914Y374115D01*
X708454Y374069D01*
X709914Y373491D01*
Y361909D01*
X708454Y361331D01*
X707914Y361285D01*
X706165Y363034D01*
X703875Y364356D01*
X701322Y365040D01*
X701270D01*
Y355000D01*
X700000D01*
Y353730D01*
X689960D01*
Y353678D01*
X690644Y351125D01*
X691966Y348835D01*
X693835Y346966D01*
X696125Y345644D01*
X698039Y345131D01*
X698856Y343120D01*
X682262Y326526D01*
X644966D01*
X642355Y326183D01*
X639923Y325175D01*
X637834Y323572D01*
X628162Y313900D01*
X625994D01*
X622561Y312980D01*
X619483Y311203D01*
X616969Y308689D01*
X616227Y307403D01*
X613917D01*
X613175Y308689D01*
X610661Y311203D01*
X607583Y312980D01*
X604149Y313900D01*
X600594D01*
X597161Y312980D01*
X594083Y311203D01*
X591569Y308689D01*
X590826Y307403D01*
X588517D01*
X587775Y308689D01*
X585261Y311203D01*
X582183Y312980D01*
X578749Y313900D01*
X575195D01*
X571761Y312980D01*
X568683Y311203D01*
X566169Y308689D01*
X565426Y307403D01*
X563117D01*
X562374Y308689D01*
X559861Y311203D01*
X556783Y312980D01*
X553349Y313900D01*
X549795D01*
X546361Y312980D01*
X543283Y311203D01*
X540769Y308689D01*
X538992Y305611D01*
X538634Y304274D01*
X536563Y304274D01*
X536459Y304661D01*
X535006Y307179D01*
X532951Y309234D01*
X530433Y310688D01*
X527625Y311440D01*
X527442D01*
Y300400D01*
X524902D01*
Y311440D01*
X524718D01*
X521911Y310688D01*
X519393Y309234D01*
X517338Y307179D01*
X515884Y304661D01*
X515780Y304274D01*
X513710Y304274D01*
X513352Y305611D01*
X511575Y308689D01*
X509061Y311203D01*
X505983Y312980D01*
X502549Y313900D01*
X498994D01*
X495561Y312980D01*
X492483Y311203D01*
X489969Y308689D01*
X489226Y307403D01*
X486917D01*
X486175Y308689D01*
X484119Y310745D01*
Y313975D01*
X483775Y316586D01*
X482767Y319018D01*
X481165Y321107D01*
X475307Y326965D01*
X473218Y328568D01*
X470785Y329576D01*
X468175Y329919D01*
X434833D01*
X432222Y329576D01*
X429790Y328568D01*
X427701Y326965D01*
X418779Y318043D01*
X417176Y315954D01*
X416169Y313522D01*
X415825Y310911D01*
Y310745D01*
X413769Y308689D01*
X413027Y307403D01*
X410717D01*
X409975Y308689D01*
X407461Y311203D01*
X404383Y312980D01*
X400949Y313900D01*
X397394D01*
X393961Y312980D01*
X390883Y311203D01*
X388369Y308689D01*
X387626Y307403D01*
X385317D01*
X384575Y308689D01*
X382061Y311203D01*
X378983Y312980D01*
X375549Y313900D01*
X371995D01*
X368561Y312980D01*
X365483Y311203D01*
X362969Y308689D01*
X362226Y307403D01*
X359917D01*
X359174Y308689D01*
X358564Y309300D01*
X369678Y320414D01*
X400000D01*
X400164Y320435D01*
X406250D01*
X408208Y320693D01*
X410032Y321449D01*
X411599Y322651D01*
X412801Y324218D01*
X413557Y326042D01*
X413815Y328000D01*
Y333000D01*
X413557Y334958D01*
X412801Y336782D01*
X411599Y338349D01*
X410032Y339551D01*
X408208Y340307D01*
X406250Y340565D01*
X400164D01*
X400000Y340586D01*
X365500D01*
X362890Y340243D01*
X360457Y339235D01*
X358368Y337632D01*
X341240Y320504D01*
X339637Y318415D01*
X338629Y315982D01*
X338285Y313372D01*
Y309406D01*
X337569Y308689D01*
X336827Y307403D01*
X334517D01*
X333774Y308689D01*
X331261Y311203D01*
X328183Y312980D01*
X324749Y313900D01*
X322580D01*
X322580Y392282D01*
X326599Y396301D01*
X327801Y397868D01*
X328557Y399692D01*
X328686Y400671D01*
X328815Y401650D01*
X328815Y401650D01*
Y470227D01*
X330206Y471294D01*
X331488Y472966D01*
X332294Y474912D01*
X332569Y477000D01*
Y483000D01*
X332294Y485088D01*
X331488Y487034D01*
X330206Y488706D01*
X330156Y489458D01*
X332063Y491365D01*
X333006Y491323D01*
X334861Y490500D01*
Y489270D01*
X345000D01*
X355139D01*
Y490500D01*
X355061Y490889D01*
X356330Y492435D01*
X362148D01*
X362545Y490435D01*
D02*
G37*
%LPC*%
G36*
X355139Y486730D02*
X345000D01*
X334861D01*
Y485500D01*
X335252Y483534D01*
X336366Y481866D01*
X337497Y481111D01*
X337596Y480765D01*
Y479235D01*
X337497Y478889D01*
X336366Y478134D01*
X335252Y476466D01*
X334861Y474500D01*
Y473270D01*
X345000D01*
X355139D01*
Y474500D01*
X354748Y476466D01*
X353634Y478134D01*
X352503Y478889D01*
X352404Y479235D01*
Y480765D01*
X352503Y481111D01*
X353634Y481866D01*
X354748Y483534D01*
X355139Y485500D01*
Y486730D01*
D02*
G37*
G36*
Y470730D02*
X346270D01*
Y464361D01*
X350000D01*
X351967Y464752D01*
X353634Y465866D01*
X354748Y467533D01*
X355139Y469500D01*
Y470730D01*
D02*
G37*
G36*
X343730D02*
X334861D01*
Y469500D01*
X335252Y467533D01*
X336366Y465866D01*
X338033Y464752D01*
X340000Y464361D01*
X343730D01*
Y470730D01*
D02*
G37*
G36*
X369445Y404900D02*
X366270D01*
Y394680D01*
X376490D01*
Y397855D01*
X376250Y399678D01*
X375546Y401378D01*
X374427Y402837D01*
X372968Y403956D01*
X371268Y404660D01*
X369445Y404900D01*
D02*
G37*
G36*
X363730D02*
X360555D01*
X358732Y404660D01*
X357032Y403956D01*
X355573Y402837D01*
X354454Y401378D01*
X353750Y399678D01*
X353510Y397855D01*
Y394680D01*
X363730D01*
Y404900D01*
D02*
G37*
G36*
X376490Y392140D02*
X366270D01*
Y381920D01*
X369445D01*
X371268Y382160D01*
X372968Y382864D01*
X374427Y383983D01*
X375546Y385442D01*
X376250Y387142D01*
X376490Y388965D01*
Y392140D01*
D02*
G37*
G36*
X363730D02*
X353510D01*
Y388965D01*
X353750Y387142D01*
X354454Y385442D01*
X355573Y383983D01*
X357032Y382864D01*
X358732Y382160D01*
X360555Y381920D01*
X363730D01*
Y392140D01*
D02*
G37*
G36*
X453722Y390440D02*
X453670D01*
Y381670D01*
X462440D01*
Y381722D01*
X461756Y384275D01*
X460434Y386565D01*
X458565Y388434D01*
X456275Y389756D01*
X453722Y390440D01*
D02*
G37*
G36*
X451130D02*
X451078D01*
X448525Y389756D01*
X446235Y388434D01*
X444366Y386565D01*
X443044Y384275D01*
X442360Y381722D01*
Y381670D01*
X451130D01*
Y390440D01*
D02*
G37*
G36*
X698730D02*
X698678D01*
X696125Y389756D01*
X693835Y388434D01*
X691966Y386565D01*
X690644Y384275D01*
X689960Y381722D01*
Y381670D01*
X698730D01*
Y390440D01*
D02*
G37*
G36*
Y379130D02*
X689960D01*
Y379078D01*
X690644Y376525D01*
X691966Y374235D01*
X693835Y372366D01*
X696125Y371044D01*
X698678Y370360D01*
X698730D01*
Y379130D01*
D02*
G37*
G36*
X462440Y379130D02*
X453670D01*
Y370360D01*
X453722D01*
X456275Y371044D01*
X458565Y372366D01*
X460434Y374235D01*
X461756Y376525D01*
X462440Y379078D01*
Y379130D01*
D02*
G37*
G36*
X451130D02*
X442360D01*
Y379078D01*
X443044Y376525D01*
X444366Y374235D01*
X446235Y372366D01*
X448525Y371044D01*
X451078Y370360D01*
X451130D01*
Y379130D01*
D02*
G37*
G36*
X453722Y365040D02*
X453670D01*
Y356270D01*
X462440D01*
Y356322D01*
X461756Y358875D01*
X460434Y361165D01*
X458565Y363034D01*
X456275Y364356D01*
X453722Y365040D01*
D02*
G37*
G36*
X451130D02*
X451078D01*
X448525Y364356D01*
X446235Y363034D01*
X444366Y361165D01*
X443044Y358875D01*
X442360Y356322D01*
Y356270D01*
X451130D01*
Y365040D01*
D02*
G37*
G36*
X698730D02*
X698678D01*
X696125Y364356D01*
X693835Y363034D01*
X691966Y361165D01*
X690644Y358875D01*
X689960Y356322D01*
Y356270D01*
X698730D01*
Y365040D01*
D02*
G37*
G36*
X404445Y407382D02*
X395555D01*
X393089Y407057D01*
X390792Y406105D01*
X388819Y404591D01*
X387305Y402618D01*
X386353Y400321D01*
X386029Y397855D01*
Y388965D01*
X386353Y386499D01*
X387305Y384202D01*
X388819Y382229D01*
X390792Y380715D01*
X392435Y380034D01*
Y369392D01*
X391792Y369307D01*
X389968Y368551D01*
X388401Y367349D01*
X387199Y365782D01*
X386443Y363958D01*
X386185Y362000D01*
Y357000D01*
X386443Y355042D01*
X387199Y353218D01*
X388401Y351651D01*
X389968Y350449D01*
X391792Y349693D01*
X393750Y349435D01*
X406250D01*
X408208Y349693D01*
X410032Y350449D01*
X411599Y351651D01*
X412801Y353218D01*
X413557Y355042D01*
X413815Y357000D01*
Y362000D01*
X413557Y363958D01*
X412801Y365782D01*
X411599Y367349D01*
X410032Y368551D01*
X408208Y369307D01*
X407565Y369392D01*
Y380034D01*
X409208Y380715D01*
X411181Y382229D01*
X412695Y384202D01*
X413647Y386499D01*
X413971Y388965D01*
Y397855D01*
X413647Y400321D01*
X412695Y402618D01*
X411181Y404591D01*
X409208Y406105D01*
X406911Y407057D01*
X404445Y407382D01*
D02*
G37*
G36*
X462440Y353730D02*
X453670D01*
Y344960D01*
X453722D01*
X456275Y345644D01*
X458565Y346966D01*
X460434Y348835D01*
X461756Y351125D01*
X462440Y353678D01*
Y353730D01*
D02*
G37*
G36*
X451130D02*
X442360D01*
Y353678D01*
X443044Y351125D01*
X444366Y348835D01*
X446235Y346966D01*
X448525Y345644D01*
X451078Y344960D01*
X451130D01*
Y353730D01*
D02*
G37*
%LPD*%
D22*
X345000Y488000D02*
D03*
Y472000D02*
D03*
X701250Y522000D02*
D03*
Y538000D02*
D03*
X470000Y522000D02*
D03*
Y538000D02*
D03*
D23*
X365000Y393410D02*
D03*
X400000D02*
D03*
Y436590D02*
D03*
X365000D02*
D03*
D24*
X619760Y635000D02*
D03*
X581660D02*
D03*
X330200D02*
D03*
X368300D02*
D03*
D25*
X373410Y530000D02*
D03*
X416590D02*
D03*
Y560000D02*
D03*
X373410D02*
D03*
X598410Y530000D02*
D03*
X641590D02*
D03*
X598410Y560000D02*
D03*
X641590D02*
D03*
D26*
X675000Y617000D02*
D03*
Y633000D02*
D03*
X725000Y575000D02*
D03*
Y559000D02*
D03*
X450000Y487000D02*
D03*
Y503000D02*
D03*
X400000Y633000D02*
D03*
Y617000D02*
D03*
X425000D02*
D03*
Y633000D02*
D03*
X650000D02*
D03*
Y617000D02*
D03*
X680000Y487000D02*
D03*
Y503000D02*
D03*
X400000Y462000D02*
D03*
Y478000D02*
D03*
D27*
X725000Y530000D02*
D03*
X677500D02*
D03*
X368750Y480000D02*
D03*
X321250D02*
D03*
X493750Y530000D02*
D03*
X446250D02*
D03*
D28*
X400000Y359500D02*
D03*
Y330500D02*
D03*
D29*
X403000Y590000D02*
D03*
X387000D02*
D03*
X628000D02*
D03*
X612000D02*
D03*
X477000Y580000D02*
D03*
X493000D02*
D03*
D30*
X526172Y275000D02*
Y300400D01*
X451443Y354043D02*
X452400Y355000D01*
X510040Y329960D02*
X525000D01*
X526172Y275000D02*
Y328788D01*
X525000Y329960D02*
X526172Y328788D01*
X495000Y345000D02*
X510040Y329960D01*
X365000Y365000D02*
X385000Y345000D01*
X348372Y300400D02*
Y313372D01*
Y275000D02*
Y300400D01*
Y313372D02*
X365500Y330500D01*
X400000D01*
X424572Y300400D02*
X425911Y301739D01*
X474032D02*
X475372Y300400D01*
X551572Y275000D02*
Y300400D01*
X678572Y275000D02*
Y300400D01*
X627772Y275000D02*
Y300400D01*
X425911Y301739D02*
Y310911D01*
X434833Y319833D01*
X576972Y275000D02*
Y300400D01*
X474032Y301739D02*
Y313975D01*
X434833Y319833D02*
X468175D01*
X474032Y313975D01*
X475372Y275000D02*
Y300400D01*
X653172Y275000D02*
Y300400D01*
X602372Y275000D02*
Y300400D01*
X624760Y619840D02*
Y630000D01*
Y619840D02*
X628000Y616600D01*
X619760Y635000D02*
X624760Y630000D01*
X628000Y590000D02*
Y616600D01*
X368300Y630000D02*
X387460Y610840D01*
Y608385D02*
Y610840D01*
X403000Y590000D02*
Y592845D01*
X368300Y630000D02*
Y635000D01*
X387460Y608385D02*
X403000Y592845D01*
X440000Y475000D02*
X450000Y465000D01*
X450000Y485000D02*
Y487000D01*
X440000Y475000D02*
X450000Y485000D01*
X404960Y510040D02*
X440000Y475000D01*
X661705Y466705D02*
X673410Y455000D01*
X598410Y530000D02*
X661705Y466705D01*
X680000Y485000D02*
Y487000D01*
X661705Y466705D02*
X680000Y485000D01*
X678750Y509000D02*
Y529000D01*
X677750Y530000D02*
X678750Y529000D01*
X680000Y503000D02*
Y507750D01*
X678750Y509000D02*
X680000Y507750D01*
X677500Y530000D02*
X677750D01*
X673410Y455000D02*
X720000Y408410D01*
X673410Y455000D02*
X673410D01*
X720000Y350000D02*
Y408410D01*
X598410Y530000D02*
Y560000D01*
X686440Y316440D02*
X720000Y350000D01*
X644966Y316440D02*
X686440D01*
X628926Y300400D02*
X644966Y316440D01*
X627772Y300400D02*
X628926D01*
X628000Y590000D02*
X637700Y580300D01*
Y563890D02*
X641590Y560000D01*
X637700Y563890D02*
Y580300D01*
X598410Y560000D02*
X602300Y563890D01*
Y580300D01*
X612000Y590000D01*
X641590Y530000D02*
X677500D01*
X700625Y522000D02*
X701250D01*
X700000Y583600D02*
X700625Y582975D01*
X725000Y530000D02*
X725000Y530000D01*
Y559000D01*
X700000Y609000D02*
X725000Y584000D01*
Y575000D02*
Y584000D01*
X446500Y530000D02*
X447500Y529000D01*
X446250Y530000D02*
X446500D01*
X447500Y505000D02*
Y529000D01*
X393370Y510040D02*
X404960D01*
X450000Y465000D02*
X510000D01*
X373410Y530000D02*
X393370Y510040D01*
X478358Y510000D02*
X500000D01*
X470000Y522000D02*
X472500D01*
X500000Y510000D02*
X510000Y520000D01*
Y595000D01*
X496000Y609000D02*
X510000Y595000D01*
X416590Y530000D02*
X446250D01*
X446250Y530000D01*
X412700Y563890D02*
X416590Y560000D01*
X403000Y590000D02*
X412700Y580300D01*
Y563890D02*
Y580300D01*
X373410Y560000D02*
Y576410D01*
Y530000D02*
Y560000D01*
Y576410D02*
X387000Y590000D01*
D31*
X449694Y609000D02*
X452400D01*
X300000Y355000D02*
Y380400D01*
X532300Y367700D02*
X545000Y355000D01*
X400000Y500000D02*
X532300Y367700D01*
X545000Y380400D01*
X547600D01*
X452400Y405800D02*
X478120D01*
X543920Y340000D02*
X555000D01*
X478120Y405800D02*
X543920Y340000D01*
X545000Y355000D02*
X547600D01*
X330000Y500000D02*
X400000D01*
X321250Y491250D02*
X330000Y500000D01*
X493000Y580000D02*
X493375Y579625D01*
Y530375D02*
Y579625D01*
Y530375D02*
X493750Y530000D01*
X473900Y583600D02*
X477000Y580500D01*
X452400Y583600D02*
X473900D01*
X477000Y580000D02*
Y580500D01*
X650000Y617000D02*
X650500D01*
X650000Y633000D02*
X675000D01*
X675700Y633700D01*
X699300D02*
X700000Y634400D01*
X675700Y633700D02*
X699300D01*
X697294Y609000D02*
X700000D01*
X675000Y617000D02*
X689294D01*
X697294Y609000D01*
X425000Y617000D02*
X441694D01*
X400000D02*
X400500D01*
X433900Y583600D01*
X452400D01*
X400000Y633000D02*
X425000D01*
X425700Y633700D02*
X451700D01*
X452400Y634400D01*
X425000Y633000D02*
X425700Y633700D01*
X555000Y340000D02*
X620800Y405800D01*
X700000D01*
X321250Y480000D02*
Y491250D01*
Y401650D02*
Y480000D01*
X300000Y380400D02*
X321250Y401650D01*
X400000Y436590D02*
Y462000D01*
X399000Y479000D02*
X400000Y478000D01*
X368750Y480000D02*
X369750Y479000D01*
X399000D01*
X365000Y436590D02*
X400000D01*
Y359500D02*
Y393410D01*
X399586Y330086D02*
X400000Y330500D01*
D32*
X551462Y652058D02*
X561618D01*
X556540Y657137D02*
Y646980D01*
X384540Y652058D02*
X394697D01*
X389618Y657137D02*
Y646980D01*
D33*
X452400Y405800D02*
D03*
X300000D02*
D03*
X452400Y380400D02*
D03*
X300000D02*
D03*
X452400Y355000D02*
D03*
X300000D02*
D03*
X452400Y583600D02*
D03*
X300000D02*
D03*
X452400Y609000D02*
D03*
X300000D02*
D03*
X452400Y634400D02*
D03*
X300000D02*
D03*
X700000Y380400D02*
D03*
Y355000D02*
D03*
X547600Y634400D02*
D03*
X700000D02*
D03*
X547600Y609000D02*
D03*
X700000D02*
D03*
X547600Y583600D02*
D03*
X700000D02*
D03*
X547600Y355000D02*
D03*
Y380400D02*
D03*
Y405800D02*
D03*
X700000D02*
D03*
D34*
X703972Y275000D02*
D03*
D35*
Y300400D02*
D03*
X678572Y275000D02*
D03*
Y300400D02*
D03*
X653172Y275000D02*
D03*
Y300400D02*
D03*
X627772D02*
D03*
Y275000D02*
D03*
X602372Y300400D02*
D03*
Y275000D02*
D03*
X500772D02*
D03*
Y300400D02*
D03*
X526172Y275000D02*
D03*
Y300400D02*
D03*
X551572D02*
D03*
Y275000D02*
D03*
X576972Y300400D02*
D03*
Y275000D02*
D03*
X399172D02*
D03*
Y300400D02*
D03*
X424572Y275000D02*
D03*
Y300400D02*
D03*
X449972D02*
D03*
Y275000D02*
D03*
X475372Y300400D02*
D03*
Y275000D02*
D03*
X322972D02*
D03*
Y300400D02*
D03*
X348372D02*
D03*
Y275000D02*
D03*
X373772Y300400D02*
D03*
Y275000D02*
D03*
X297572Y300400D02*
D03*
Y275000D02*
D03*
D36*
X510000Y465000D02*
D03*
M02*
