M48
;Layer_Color=9474304
;FILE_FORMAT=4:4
METRIC,LZ
;TYPE=PLATED
T1F00S00C0.7112
T2F00S00C0.8000
T3F00S00C1.0000
%
T01
X0051Y00465
T02
X003Y00355
Y003804
X004524
Y00355
X005476
Y003804
X007
Y00355
Y004058
X005476
X004524
Y005836
Y00609
Y006344
X005476
Y00609
Y005836
X007
Y00609
Y006344
X003
Y00609
Y005836
Y004058
T03
X00297572Y00275
X00322972
Y003004
X00348372
Y00275
X00373772
Y003004
X00297572
X00399172
Y00275
X00424572
Y003004
X00449972
Y00275
X00475372
X00500772
Y003004
X00526172
Y00275
X00551572
Y003004
X00576972
X00602372
X00627772
X00653172
X00678572
X00703972
Y00275
X00678572
X00653172
X00627772
X00602372
X00576972
X00475372Y003004
M30
