G04*
G04 #@! TF.GenerationSoftware,Altium Limited,Altium Designer,21.2.2 (38)*
G04*
G04 Layer_Physical_Order=3*
G04 Layer_Color=16440176*
%FSLAX44Y44*%
%MOMM*%
G71*
G04*
G04 #@! TF.SameCoordinates,FBAD0861-C7C3-44E5-B471-CEE513BBFA7F*
G04*
G04*
G04 #@! TF.FilePolarity,Positive*
G04*
G01*
G75*
%ADD36C,0.4000*%
%ADD57O,1.0500X1.5000*%
%ADD59C,1.7000*%
%ADD60R,1.7000X1.7000*%
%ADD61C,2.2620*%
%ADD63C,1.2700*%
%ADD64C,1.2000*%
%ADD65C,5.0000*%
G36*
X724143Y843730D02*
X722317Y841904D01*
X720494Y838746D01*
X719550Y835223D01*
Y834670D01*
X733400D01*
Y833400D01*
X734670D01*
Y819550D01*
X735223D01*
X738746Y820494D01*
X741904Y822317D01*
X743730Y824143D01*
X745000Y823617D01*
Y792383D01*
X743730Y791857D01*
X741904Y793683D01*
X738746Y795506D01*
X735223Y796450D01*
X734670D01*
Y782600D01*
Y768750D01*
X735223D01*
X738746Y769694D01*
X741904Y771517D01*
X743730Y773343D01*
X745000Y772817D01*
X745000Y463605D01*
X743730Y463079D01*
X743127Y463682D01*
X741223Y464781D01*
X739099Y465350D01*
X736901D01*
X734777Y464781D01*
X732873Y463682D01*
X731318Y462127D01*
X730219Y460223D01*
X729650Y458099D01*
Y455901D01*
X730219Y453777D01*
X731318Y451873D01*
X732873Y450318D01*
X734777Y449219D01*
X736901Y448650D01*
X739099D01*
X741223Y449219D01*
X743127Y450318D01*
X743730Y450921D01*
X745000Y450395D01*
X745000Y205000D01*
X255000D01*
X255000Y773270D01*
X256227Y773599D01*
X256517Y773096D01*
X259096Y770517D01*
X262254Y768694D01*
X265777Y767750D01*
X266330D01*
Y781600D01*
Y795450D01*
X265777D01*
X262254Y794506D01*
X259096Y792683D01*
X256517Y790104D01*
X256227Y789601D01*
X255000Y789930D01*
Y824070D01*
X256227Y824399D01*
X256517Y823896D01*
X259096Y821317D01*
X262254Y819494D01*
X265777Y818550D01*
X266330D01*
Y832400D01*
X267600D01*
Y833670D01*
X281450D01*
Y834223D01*
X280506Y837746D01*
X278683Y840904D01*
X276104Y843483D01*
X275601Y843773D01*
X275930Y845000D01*
X310070D01*
X310399Y843773D01*
X309896Y843483D01*
X307317Y840904D01*
X305494Y837746D01*
X304550Y834223D01*
Y833670D01*
X318400D01*
X332250D01*
Y834223D01*
X331306Y837746D01*
X329483Y840904D01*
X326904Y843483D01*
X326401Y843773D01*
X326730Y845000D01*
X672817D01*
X673343Y843730D01*
X671517Y841904D01*
X669694Y838746D01*
X668750Y835223D01*
Y834670D01*
X682600D01*
X696450D01*
Y835223D01*
X695506Y838746D01*
X693683Y841904D01*
X691857Y843730D01*
X692383Y845000D01*
X723617D01*
X724143Y843730D01*
D02*
G37*
%LPC*%
G36*
X732130Y832130D02*
X719550D01*
Y831577D01*
X720494Y828054D01*
X722317Y824896D01*
X724896Y822317D01*
X728054Y820494D01*
X731577Y819550D01*
X732130D01*
Y832130D01*
D02*
G37*
G36*
X696450Y832130D02*
X683870D01*
Y819550D01*
X684423D01*
X687946Y820494D01*
X691104Y822317D01*
X693683Y824896D01*
X695506Y828054D01*
X696450Y831577D01*
Y832130D01*
D02*
G37*
G36*
X681330D02*
X668750D01*
Y831577D01*
X669694Y828054D01*
X671517Y824896D01*
X674096Y822317D01*
X677254Y820494D01*
X680777Y819550D01*
X681330D01*
Y832130D01*
D02*
G37*
G36*
X332250Y831130D02*
X319670D01*
Y818550D01*
X320223D01*
X323746Y819494D01*
X326904Y821317D01*
X329483Y823896D01*
X331306Y827054D01*
X332250Y830577D01*
Y831130D01*
D02*
G37*
G36*
X317130D02*
X304550D01*
Y830577D01*
X305494Y827054D01*
X307317Y823896D01*
X309896Y821317D01*
X313054Y819494D01*
X316577Y818550D01*
X317130D01*
Y831130D01*
D02*
G37*
G36*
X281450D02*
X268870D01*
Y818550D01*
X269423D01*
X272946Y819494D01*
X276104Y821317D01*
X278683Y823896D01*
X280506Y827054D01*
X281450Y830577D01*
Y831130D01*
D02*
G37*
G36*
X502767Y837020D02*
X500234D01*
X497787Y836365D01*
X495593Y835098D01*
X493802Y833307D01*
X492536Y831113D01*
X491880Y828667D01*
Y826134D01*
X492536Y823687D01*
X493802Y821493D01*
X495593Y819702D01*
X497787Y818436D01*
X500234Y817780D01*
X502767D01*
X505213Y818436D01*
X507407Y819702D01*
X509198Y821493D01*
X510465Y823687D01*
X511120Y826134D01*
Y828667D01*
X510465Y831113D01*
X509198Y833307D01*
X507407Y835098D01*
X505213Y836365D01*
X502767Y837020D01*
D02*
G37*
G36*
X552767Y837020D02*
X550234D01*
X547787Y836364D01*
X545593Y835098D01*
X543802Y833307D01*
X542536Y831113D01*
X541880Y828667D01*
Y826133D01*
X542536Y823687D01*
X543802Y821493D01*
X545593Y819702D01*
X547787Y818436D01*
X550234Y817780D01*
X552767D01*
X555213Y818436D01*
X557407Y819702D01*
X559198Y821493D01*
X560465Y823687D01*
X561120Y826133D01*
Y828667D01*
X560465Y831113D01*
X559198Y833307D01*
X557407Y835098D01*
X555213Y836364D01*
X552767Y837020D01*
D02*
G37*
G36*
X452767D02*
X450234D01*
X447787Y836364D01*
X445593Y835098D01*
X443802Y833307D01*
X442536Y831113D01*
X441880Y828667D01*
Y826133D01*
X442536Y823687D01*
X443802Y821493D01*
X445593Y819702D01*
X447787Y818436D01*
X450234Y817780D01*
X452767D01*
X455213Y818436D01*
X457407Y819702D01*
X459198Y821493D01*
X460465Y823687D01*
X461120Y826133D01*
Y828667D01*
X460465Y831113D01*
X459198Y833307D01*
X457407Y835098D01*
X455213Y836364D01*
X452767Y837020D01*
D02*
G37*
G36*
X709752Y821310D02*
X706248D01*
X702863Y820403D01*
X699827Y818651D01*
X697349Y816172D01*
X695597Y813138D01*
X694690Y809752D01*
Y806248D01*
X695597Y802863D01*
X697349Y799827D01*
X699827Y797349D01*
X702863Y795597D01*
X706248Y794690D01*
X709752D01*
X713138Y795597D01*
X716173Y797349D01*
X718651Y799827D01*
X720403Y802863D01*
X721310Y806248D01*
Y809752D01*
X720403Y813138D01*
X718651Y816172D01*
X716173Y818651D01*
X713138Y820403D01*
X709752Y821310D01*
D02*
G37*
G36*
X294752Y820310D02*
X291248D01*
X287862Y819403D01*
X284827Y817651D01*
X282349Y815173D01*
X280597Y812138D01*
X279690Y808752D01*
Y805248D01*
X280597Y801863D01*
X282349Y798828D01*
X284827Y796349D01*
X287862Y794597D01*
X291248Y793690D01*
X294752D01*
X298137Y794597D01*
X301173Y796349D01*
X303651Y798828D01*
X305403Y801863D01*
X306310Y805248D01*
Y808752D01*
X305403Y812138D01*
X303651Y815173D01*
X301173Y817651D01*
X298137Y819403D01*
X294752Y820310D01*
D02*
G37*
G36*
X502767Y811620D02*
X500234D01*
X497787Y810965D01*
X495593Y809698D01*
X493802Y807907D01*
X492536Y805713D01*
X491880Y803267D01*
Y800734D01*
X492536Y798287D01*
X493802Y796093D01*
X495593Y794302D01*
X497787Y793036D01*
X500234Y792380D01*
X502767D01*
X505213Y793036D01*
X507407Y794302D01*
X509198Y796093D01*
X510465Y798287D01*
X511120Y800734D01*
Y803267D01*
X510465Y805713D01*
X509198Y807907D01*
X507407Y809698D01*
X505213Y810965D01*
X502767Y811620D01*
D02*
G37*
G36*
X552767Y811620D02*
X550234D01*
X547787Y810964D01*
X545593Y809698D01*
X543802Y807907D01*
X542536Y805713D01*
X541880Y803267D01*
Y800733D01*
X542536Y798287D01*
X543802Y796093D01*
X545593Y794302D01*
X547787Y793036D01*
X550234Y792380D01*
X552767D01*
X555213Y793036D01*
X557407Y794302D01*
X559198Y796093D01*
X560465Y798287D01*
X561120Y800733D01*
Y803267D01*
X560465Y805713D01*
X559198Y807907D01*
X557407Y809698D01*
X555213Y810964D01*
X552767Y811620D01*
D02*
G37*
G36*
X452767D02*
X450234D01*
X447787Y810964D01*
X445593Y809698D01*
X443802Y807907D01*
X442536Y805713D01*
X441880Y803267D01*
Y800733D01*
X442536Y798287D01*
X443802Y796093D01*
X445593Y794302D01*
X447787Y793036D01*
X450234Y792380D01*
X452767D01*
X455213Y793036D01*
X457407Y794302D01*
X459198Y796093D01*
X460465Y798287D01*
X461120Y800733D01*
Y803267D01*
X460465Y805713D01*
X459198Y807907D01*
X457407Y809698D01*
X455213Y810964D01*
X452767Y811620D01*
D02*
G37*
G36*
X732130Y796450D02*
X731577D01*
X728054Y795506D01*
X724896Y793683D01*
X722317Y791104D01*
X720494Y787946D01*
X719550Y784423D01*
Y783870D01*
X732130D01*
Y796450D01*
D02*
G37*
G36*
X684423D02*
X683870D01*
Y783870D01*
X696450D01*
Y784423D01*
X695506Y787946D01*
X693683Y791104D01*
X691104Y793683D01*
X687946Y795506D01*
X684423Y796450D01*
D02*
G37*
G36*
X681330D02*
X680777D01*
X677254Y795506D01*
X674096Y793683D01*
X671517Y791104D01*
X669694Y787946D01*
X668750Y784423D01*
Y783870D01*
X681330D01*
Y796450D01*
D02*
G37*
G36*
X320223Y795450D02*
X319670D01*
Y782870D01*
X332250D01*
Y783423D01*
X331306Y786946D01*
X329483Y790104D01*
X326904Y792683D01*
X323746Y794506D01*
X320223Y795450D01*
D02*
G37*
G36*
X269423D02*
X268870D01*
Y782870D01*
X281450D01*
Y783423D01*
X280506Y786946D01*
X278683Y790104D01*
X276104Y792683D01*
X272946Y794506D01*
X269423Y795450D01*
D02*
G37*
G36*
X317130D02*
X316577D01*
X313054Y794506D01*
X309896Y792683D01*
X307317Y790104D01*
X305494Y786946D01*
X304550Y783423D01*
Y782870D01*
X317130D01*
Y795450D01*
D02*
G37*
G36*
X732130Y781330D02*
X719550D01*
Y780777D01*
X720494Y777254D01*
X722317Y774096D01*
X724896Y771517D01*
X728054Y769694D01*
X731577Y768750D01*
X732130D01*
Y781330D01*
D02*
G37*
G36*
X696450Y781330D02*
X683870D01*
Y768750D01*
X684423D01*
X687946Y769694D01*
X691104Y771517D01*
X693683Y774096D01*
X695506Y777254D01*
X696450Y780777D01*
Y781330D01*
D02*
G37*
G36*
X681330D02*
X668750D01*
Y780777D01*
X669694Y777254D01*
X671517Y774096D01*
X674096Y771517D01*
X677254Y769694D01*
X680777Y768750D01*
X681330D01*
Y781330D01*
D02*
G37*
G36*
X332250Y780330D02*
X319670D01*
Y767750D01*
X320223D01*
X323746Y768694D01*
X326904Y770517D01*
X329483Y773096D01*
X331306Y776254D01*
X332250Y779777D01*
Y780330D01*
D02*
G37*
G36*
X317130D02*
X304550D01*
Y779777D01*
X305494Y776254D01*
X307317Y773096D01*
X309896Y770517D01*
X313054Y768694D01*
X316577Y767750D01*
X317130D01*
Y780330D01*
D02*
G37*
G36*
X281450D02*
X268870D01*
Y767750D01*
X269423D01*
X272946Y768694D01*
X276104Y770517D01*
X278683Y773096D01*
X280506Y776254D01*
X281450Y779777D01*
Y780330D01*
D02*
G37*
G36*
X502767Y786220D02*
X500234D01*
X497787Y785564D01*
X495593Y784298D01*
X493802Y782507D01*
X492536Y780313D01*
X491880Y777867D01*
Y775334D01*
X492536Y772887D01*
X493802Y770693D01*
X495593Y768902D01*
X497787Y767636D01*
X500234Y766980D01*
X502767D01*
X505213Y767636D01*
X507407Y768902D01*
X509198Y770693D01*
X510465Y772887D01*
X511120Y775334D01*
Y777867D01*
X510465Y780313D01*
X509198Y782507D01*
X507407Y784298D01*
X505213Y785564D01*
X502767Y786220D01*
D02*
G37*
G36*
X552767Y786220D02*
X550234D01*
X547787Y785564D01*
X545593Y784298D01*
X543802Y782507D01*
X542536Y780313D01*
X541880Y777867D01*
Y775333D01*
X542536Y772887D01*
X543802Y770693D01*
X545593Y768902D01*
X547787Y767636D01*
X550234Y766980D01*
X552767D01*
X555213Y767636D01*
X557407Y768902D01*
X559198Y770693D01*
X560465Y772887D01*
X561120Y775333D01*
Y777867D01*
X560465Y780313D01*
X559198Y782507D01*
X557407Y784298D01*
X555213Y785564D01*
X552767Y786220D01*
D02*
G37*
G36*
X452767D02*
X450234D01*
X447787Y785564D01*
X445593Y784298D01*
X443802Y782507D01*
X442536Y780313D01*
X441880Y777867D01*
Y775333D01*
X442536Y772887D01*
X443802Y770693D01*
X445593Y768902D01*
X447787Y767636D01*
X450234Y766980D01*
X452767D01*
X455213Y767636D01*
X457407Y768902D01*
X459198Y770693D01*
X460465Y772887D01*
X461120Y775333D01*
Y777867D01*
X460465Y780313D01*
X459198Y782507D01*
X457407Y784298D01*
X455213Y785564D01*
X452767Y786220D01*
D02*
G37*
G36*
X690053Y698000D02*
X687947D01*
X685912Y697455D01*
X684088Y696402D01*
X682598Y694912D01*
X681545Y693088D01*
X681000Y691053D01*
Y688947D01*
X681545Y686912D01*
X682598Y685088D01*
X684088Y683598D01*
X685912Y682545D01*
X687947Y682000D01*
X690053D01*
X692088Y682545D01*
X693912Y683598D01*
X695402Y685088D01*
X696455Y686912D01*
X697000Y688947D01*
Y691053D01*
X696455Y693088D01*
X695402Y694912D01*
X693912Y696402D01*
X692088Y697455D01*
X690053Y698000D01*
D02*
G37*
G36*
X423053Y668435D02*
X420947D01*
X418912Y667890D01*
X417088Y666837D01*
X415598Y665348D01*
X414545Y663523D01*
X414000Y661489D01*
Y659382D01*
X414545Y657347D01*
X415598Y655523D01*
X417088Y654034D01*
X418912Y652981D01*
X420947Y652435D01*
X423053D01*
X424007Y652691D01*
X425044Y651654D01*
X425000Y651489D01*
Y649382D01*
X425545Y647347D01*
X426598Y645523D01*
X428088Y644034D01*
X429912Y642981D01*
X431947Y642435D01*
X434053D01*
X436088Y642981D01*
X437912Y644034D01*
X439402Y645523D01*
X440455Y647347D01*
X441000Y649382D01*
Y651489D01*
X440455Y653523D01*
X439402Y655348D01*
X437912Y656837D01*
X436088Y657890D01*
X434053Y658435D01*
X431947D01*
X430993Y658180D01*
X429956Y659217D01*
X430000Y659382D01*
Y661489D01*
X429455Y663523D01*
X428402Y665348D01*
X426912Y666837D01*
X425088Y667890D01*
X423053Y668435D01*
D02*
G37*
G36*
X567053Y652000D02*
X564947D01*
X562912Y651455D01*
X561088Y650402D01*
X559598Y648912D01*
X558545Y647088D01*
X558000Y645053D01*
Y642947D01*
X558545Y640912D01*
X559598Y639088D01*
X561088Y637598D01*
X562912Y636545D01*
X564947Y636000D01*
X567053D01*
X569088Y636545D01*
X570912Y637598D01*
X572402Y639088D01*
X573455Y640912D01*
X574000Y642947D01*
Y645053D01*
X573455Y647088D01*
X572402Y648912D01*
X570912Y650402D01*
X569088Y651455D01*
X567053Y652000D01*
D02*
G37*
G36*
X513099Y630350D02*
X510901D01*
X508777Y629781D01*
X506873Y628682D01*
X505318Y627127D01*
X504219Y625223D01*
X503650Y623099D01*
Y620901D01*
X504219Y618777D01*
X505318Y616873D01*
X506873Y615318D01*
X508777Y614219D01*
X510901Y613650D01*
X513099D01*
X515223Y614219D01*
X517127Y615318D01*
X518682Y616873D01*
X519781Y618777D01*
X520350Y620901D01*
Y623099D01*
X519781Y625223D01*
X518682Y627127D01*
X517127Y628682D01*
X515223Y629781D01*
X513099Y630350D01*
D02*
G37*
G36*
X534099Y622350D02*
X531901D01*
X529777Y621781D01*
X527873Y620682D01*
X526318Y619127D01*
X525219Y617223D01*
X524650Y615099D01*
Y612901D01*
X525219Y610777D01*
X526318Y608873D01*
X527873Y607318D01*
X529777Y606219D01*
X531901Y605650D01*
X534099D01*
X536223Y606219D01*
X538127Y607318D01*
X539682Y608873D01*
X540781Y610777D01*
X541350Y612901D01*
Y615099D01*
X540781Y617223D01*
X539682Y619127D01*
X538127Y620682D01*
X536223Y621781D01*
X534099Y622350D01*
D02*
G37*
G36*
X304988Y594091D02*
X302789D01*
X300665Y593522D01*
X298761Y592423D01*
X297207Y590868D01*
X296107Y588964D01*
X295538Y586840D01*
Y584642D01*
X296107Y582518D01*
X297207Y580614D01*
X298761Y579059D01*
X300665Y577960D01*
X302789Y577391D01*
X304988D01*
X307111Y577960D01*
X309015Y579059D01*
X310570Y580614D01*
X311669Y582518D01*
X312238Y584642D01*
Y586840D01*
X311669Y588964D01*
X310570Y590868D01*
X309015Y592423D01*
X307111Y593522D01*
X304988Y594091D01*
D02*
G37*
G36*
X669099Y580350D02*
X666901D01*
X664777Y579781D01*
X662873Y578682D01*
X661318Y577127D01*
X660219Y575223D01*
X659650Y573099D01*
Y570901D01*
X660219Y568777D01*
X661318Y566873D01*
X662873Y565318D01*
X664777Y564219D01*
X666901Y563650D01*
X669099D01*
X671223Y564219D01*
X673127Y565318D01*
X674682Y566873D01*
X675781Y568777D01*
X676350Y570901D01*
Y573099D01*
X675781Y575223D01*
X674682Y577127D01*
X673127Y578682D01*
X671223Y579781D01*
X669099Y580350D01*
D02*
G37*
G36*
X598099D02*
X595901D01*
X593777Y579781D01*
X591873Y578682D01*
X590318Y577127D01*
X589219Y575223D01*
X588650Y573099D01*
Y570901D01*
X589219Y568777D01*
X590318Y566873D01*
X591873Y565318D01*
X593777Y564219D01*
X595901Y563650D01*
X598099D01*
X600223Y564219D01*
X602127Y565318D01*
X603682Y566873D01*
X604781Y568777D01*
X605350Y570901D01*
Y573099D01*
X604781Y575223D01*
X603682Y577127D01*
X602127Y578682D01*
X600223Y579781D01*
X598099Y580350D01*
D02*
G37*
G36*
X524130Y558740D02*
X523366Y558639D01*
X521471Y557854D01*
X519844Y556606D01*
X519345Y555955D01*
X518075D01*
X517871Y556221D01*
X516356Y557383D01*
X514593Y558113D01*
X512700Y558363D01*
X510807Y558113D01*
X509044Y557383D01*
X507529Y556221D01*
X507150Y555727D01*
X505550D01*
X505171Y556221D01*
X503656Y557383D01*
X501893Y558113D01*
X500000Y558363D01*
X498107Y558113D01*
X496344Y557383D01*
X494829Y556221D01*
X494450Y555727D01*
X492850D01*
X492471Y556221D01*
X490956Y557383D01*
X489193Y558113D01*
X487300Y558363D01*
X485407Y558113D01*
X483644Y557383D01*
X482129Y556221D01*
X481750Y555727D01*
X480150D01*
X479771Y556221D01*
X478256Y557383D01*
X476493Y558113D01*
X474600Y558363D01*
X472707Y558113D01*
X470944Y557383D01*
X469429Y556221D01*
X468267Y554706D01*
X467537Y552943D01*
X467287Y551050D01*
Y546550D01*
X467537Y544657D01*
X468267Y542894D01*
X469429Y541379D01*
X470944Y540217D01*
X472707Y539487D01*
X474600Y539238D01*
X476493Y539487D01*
X478256Y540217D01*
X479771Y541379D01*
X480150Y541873D01*
X481750D01*
X482129Y541379D01*
X483644Y540217D01*
X485407Y539487D01*
X487300Y539238D01*
X489193Y539487D01*
X490956Y540217D01*
X492471Y541379D01*
X492850Y541873D01*
X494450D01*
X494829Y541379D01*
X496344Y540217D01*
X498107Y539487D01*
X500000Y539238D01*
X501893Y539487D01*
X503656Y540217D01*
X505171Y541379D01*
X505550Y541873D01*
X507150D01*
X507529Y541379D01*
X509044Y540217D01*
X510807Y539487D01*
X512700Y539238D01*
X514593Y539487D01*
X516356Y540217D01*
X517871Y541379D01*
X518075Y541645D01*
X519345D01*
X519844Y540994D01*
X521471Y539745D01*
X523366Y538960D01*
X524130Y538860D01*
Y548800D01*
Y558740D01*
D02*
G37*
G36*
X526670Y558740D02*
Y550070D01*
X533257D01*
Y551050D01*
X532990Y553084D01*
X532205Y554979D01*
X530956Y556606D01*
X529329Y557854D01*
X527434Y558639D01*
X526670Y558740D01*
D02*
G37*
G36*
X533257Y547530D02*
X526670D01*
Y538860D01*
X527434Y538960D01*
X529329Y539745D01*
X530956Y540994D01*
X532205Y542621D01*
X532990Y544516D01*
X533257Y546550D01*
Y547530D01*
D02*
G37*
G36*
X715099Y527350D02*
X712901D01*
X710777Y526781D01*
X708873Y525682D01*
X707318Y524127D01*
X706219Y522223D01*
X705650Y520099D01*
Y517901D01*
X706219Y515777D01*
X707318Y513873D01*
X708873Y512318D01*
X710777Y511219D01*
X712901Y510650D01*
X715099D01*
X717223Y511219D01*
X719127Y512318D01*
X720682Y513873D01*
X721781Y515777D01*
X722350Y517901D01*
Y520099D01*
X721781Y522223D01*
X720682Y524127D01*
X719127Y525682D01*
X717223Y526781D01*
X715099Y527350D01*
D02*
G37*
G36*
X293599Y523350D02*
X291401D01*
X289277Y522781D01*
X287373Y521682D01*
X285818Y520127D01*
X284719Y518223D01*
X284150Y516099D01*
Y513901D01*
X284719Y511777D01*
X285818Y509873D01*
X287373Y508318D01*
X289277Y507219D01*
X291401Y506650D01*
X293599D01*
X295723Y507219D01*
X297627Y508318D01*
X299182Y509873D01*
X300281Y511777D01*
X300850Y513901D01*
Y516099D01*
X300281Y518223D01*
X299182Y520127D01*
X297627Y521682D01*
X295723Y522781D01*
X293599Y523350D01*
D02*
G37*
G36*
X622099Y512350D02*
X619901D01*
X617777Y511781D01*
X615873Y510682D01*
X614318Y509127D01*
X613219Y507223D01*
X612650Y505099D01*
Y502901D01*
X613219Y500777D01*
X614318Y498873D01*
X615873Y497318D01*
X617777Y496219D01*
X619901Y495650D01*
X622099D01*
X624223Y496219D01*
X626127Y497318D01*
X627682Y498873D01*
X628781Y500777D01*
X629350Y502901D01*
Y505099D01*
X628781Y507223D01*
X627682Y509127D01*
X626127Y510682D01*
X624223Y511781D01*
X622099Y512350D01*
D02*
G37*
G36*
X323553Y508000D02*
X321447D01*
X319412Y507455D01*
X317588Y506402D01*
X316098Y504912D01*
X315045Y503088D01*
X314500Y501053D01*
Y498947D01*
X315045Y496912D01*
X316098Y495088D01*
X317588Y493598D01*
X319412Y492545D01*
X321447Y492000D01*
X323553D01*
X325588Y492545D01*
X327412Y493598D01*
X328901Y495088D01*
X329955Y496912D01*
X330500Y498947D01*
Y501053D01*
X329955Y503088D01*
X328901Y504912D01*
X327412Y506402D01*
X325588Y507455D01*
X323553Y508000D01*
D02*
G37*
G36*
X553050Y530713D02*
X548550D01*
X546657Y530463D01*
X544894Y529733D01*
X543379Y528571D01*
X542217Y527056D01*
X541487Y525293D01*
X541237Y523400D01*
X541487Y521507D01*
X542217Y519744D01*
X543379Y518229D01*
X543873Y517850D01*
Y516250D01*
X543379Y515871D01*
X542217Y514356D01*
X541487Y512593D01*
X541237Y510700D01*
X541487Y508807D01*
X542217Y507044D01*
X543379Y505529D01*
X543873Y505150D01*
Y503550D01*
X543379Y503171D01*
X542217Y501656D01*
X541487Y499893D01*
X541237Y498000D01*
X541487Y496107D01*
X542217Y494344D01*
X543379Y492829D01*
X543873Y492450D01*
Y490850D01*
X543379Y490471D01*
X542217Y488956D01*
X541487Y487193D01*
X541237Y485300D01*
X541487Y483407D01*
X542217Y481644D01*
X543379Y480129D01*
X543873Y479750D01*
Y478150D01*
X543379Y477771D01*
X542217Y476256D01*
X541487Y474493D01*
X541237Y472600D01*
X541487Y470707D01*
X542217Y468944D01*
X543379Y467429D01*
X544894Y466267D01*
X546657Y465537D01*
X548550Y465287D01*
X553050D01*
X554943Y465537D01*
X556706Y466267D01*
X558221Y467429D01*
X559383Y468944D01*
X560113Y470707D01*
X560363Y472600D01*
X560113Y474493D01*
X559383Y476256D01*
X558221Y477771D01*
X557727Y478150D01*
Y479750D01*
X558221Y480129D01*
X559383Y481644D01*
X560113Y483407D01*
X560363Y485300D01*
X560113Y487193D01*
X559383Y488956D01*
X558221Y490471D01*
X557727Y490850D01*
Y492450D01*
X558221Y492829D01*
X559383Y494344D01*
X560113Y496107D01*
X560363Y498000D01*
X560113Y499893D01*
X559383Y501656D01*
X558221Y503171D01*
X557727Y503550D01*
Y505150D01*
X558221Y505529D01*
X559383Y507044D01*
X560113Y508807D01*
X560363Y510700D01*
X560113Y512593D01*
X559383Y514356D01*
X558221Y515871D01*
X557727Y516250D01*
Y517850D01*
X558221Y518229D01*
X559383Y519744D01*
X560113Y521507D01*
X560363Y523400D01*
X560113Y525293D01*
X559383Y527056D01*
X558221Y528571D01*
X556706Y529733D01*
X554943Y530463D01*
X553050Y530713D01*
D02*
G37*
G36*
X452450D02*
X447950D01*
X446057Y530463D01*
X444294Y529733D01*
X442779Y528571D01*
X441617Y527056D01*
X440887Y525293D01*
X440637Y523400D01*
X440887Y521507D01*
X441617Y519744D01*
X442779Y518229D01*
X443273Y517850D01*
Y516250D01*
X442779Y515871D01*
X441617Y514356D01*
X440887Y512593D01*
X440637Y510700D01*
X440887Y508807D01*
X441617Y507044D01*
X442779Y505529D01*
X443273Y505150D01*
Y503550D01*
X442779Y503171D01*
X441617Y501656D01*
X440887Y499893D01*
X440637Y498000D01*
X440887Y496107D01*
X441617Y494344D01*
X442779Y492829D01*
X443273Y492450D01*
Y490850D01*
X442779Y490471D01*
X441617Y488956D01*
X440887Y487193D01*
X440638Y485300D01*
X440887Y483407D01*
X441617Y481644D01*
X442779Y480129D01*
X443273Y479750D01*
Y478150D01*
X442779Y477771D01*
X441617Y476256D01*
X440887Y474493D01*
X440637Y472600D01*
X440887Y470707D01*
X441617Y468944D01*
X442779Y467429D01*
X444294Y466267D01*
X446057Y465537D01*
X447950Y465287D01*
X452450D01*
X454343Y465537D01*
X456106Y466267D01*
X457621Y467429D01*
X458783Y468944D01*
X459513Y470707D01*
X459762Y472600D01*
X459513Y474493D01*
X458783Y476256D01*
X457621Y477771D01*
X457127Y478150D01*
Y479750D01*
X457621Y480129D01*
X458783Y481644D01*
X459513Y483407D01*
X459763Y485300D01*
X459513Y487193D01*
X458783Y488956D01*
X457621Y490471D01*
X457127Y490850D01*
Y492450D01*
X457621Y492829D01*
X458783Y494344D01*
X459513Y496107D01*
X459762Y498000D01*
X459513Y499893D01*
X458783Y501656D01*
X457621Y503171D01*
X457127Y503550D01*
Y505150D01*
X457621Y505529D01*
X458783Y507044D01*
X459513Y508807D01*
X459762Y510700D01*
X459513Y512593D01*
X458783Y514356D01*
X457621Y515871D01*
X457127Y516250D01*
Y517850D01*
X457621Y518229D01*
X458783Y519744D01*
X459513Y521507D01*
X459762Y523400D01*
X459513Y525293D01*
X458783Y527056D01*
X457621Y528571D01*
X456106Y529733D01*
X454343Y530463D01*
X452450Y530713D01*
D02*
G37*
G36*
X525400Y456763D02*
X523507Y456513D01*
X521744Y455783D01*
X520229Y454621D01*
X519850Y454127D01*
X518250D01*
X517871Y454621D01*
X516356Y455783D01*
X514593Y456513D01*
X512700Y456763D01*
X510807Y456513D01*
X509044Y455783D01*
X507529Y454621D01*
X507150Y454127D01*
X505550D01*
X505171Y454621D01*
X503656Y455783D01*
X501893Y456513D01*
X500000Y456763D01*
X498107Y456513D01*
X496344Y455783D01*
X494829Y454621D01*
X494450Y454127D01*
X492850D01*
X492471Y454621D01*
X490956Y455783D01*
X489193Y456513D01*
X487300Y456763D01*
X485407Y456513D01*
X483644Y455783D01*
X482129Y454621D01*
X481750Y454127D01*
X480150D01*
X479771Y454621D01*
X478256Y455783D01*
X476493Y456513D01*
X474600Y456763D01*
X472707Y456513D01*
X470944Y455783D01*
X469429Y454621D01*
X468267Y453106D01*
X467537Y451343D01*
X467287Y449450D01*
Y444950D01*
X467537Y443057D01*
X468267Y441294D01*
X469429Y439779D01*
X470944Y438617D01*
X472707Y437887D01*
X474600Y437637D01*
X476493Y437887D01*
X478256Y438617D01*
X479771Y439779D01*
X480150Y440273D01*
X481750D01*
X482129Y439779D01*
X483644Y438617D01*
X485407Y437887D01*
X487300Y437637D01*
X489193Y437887D01*
X490956Y438617D01*
X492471Y439779D01*
X492850Y440273D01*
X494450D01*
X494829Y439779D01*
X496344Y438617D01*
X498107Y437887D01*
X500000Y437637D01*
X501893Y437887D01*
X503656Y438617D01*
X505171Y439779D01*
X505550Y440273D01*
X507150D01*
X507529Y439779D01*
X509044Y438617D01*
X510807Y437887D01*
X512700Y437637D01*
X514593Y437887D01*
X516356Y438617D01*
X517871Y439779D01*
X518250Y440273D01*
X519850D01*
X520229Y439779D01*
X521744Y438617D01*
X523507Y437887D01*
X525400Y437637D01*
X527293Y437887D01*
X529056Y438617D01*
X530571Y439779D01*
X531733Y441294D01*
X532463Y443057D01*
X532713Y444950D01*
Y449450D01*
X532463Y451343D01*
X531733Y453106D01*
X530571Y454621D01*
X529056Y455783D01*
X527293Y456513D01*
X525400Y456763D01*
D02*
G37*
G36*
X403553Y440000D02*
X401447D01*
X399412Y439455D01*
X397588Y438402D01*
X396098Y436912D01*
X395045Y435088D01*
X394500Y433053D01*
Y430947D01*
X395045Y428912D01*
X396098Y427088D01*
X397588Y425598D01*
X399412Y424545D01*
X401447Y424000D01*
X403553D01*
X405588Y424545D01*
X407412Y425598D01*
X408901Y427088D01*
X409955Y428912D01*
X410500Y430947D01*
Y433053D01*
X409955Y435088D01*
X408901Y436912D01*
X407412Y438402D01*
X405588Y439455D01*
X403553Y440000D01*
D02*
G37*
G36*
X575599Y439850D02*
X573401D01*
X571277Y439281D01*
X569373Y438182D01*
X567818Y436627D01*
X566719Y434723D01*
X566150Y432599D01*
Y430401D01*
X566719Y428277D01*
X567818Y426373D01*
X569373Y424818D01*
X571277Y423719D01*
X573401Y423150D01*
X575599D01*
X577723Y423719D01*
X579627Y424818D01*
X581182Y426373D01*
X582281Y428277D01*
X582850Y430401D01*
Y432599D01*
X582281Y434723D01*
X581182Y436627D01*
X579627Y438182D01*
X577723Y439281D01*
X575599Y439850D01*
D02*
G37*
G36*
X655053Y340440D02*
X654870D01*
Y330670D01*
X664640D01*
Y330853D01*
X663888Y333661D01*
X662434Y336179D01*
X660379Y338234D01*
X657861Y339688D01*
X655053Y340440D01*
D02*
G37*
G36*
X477253D02*
X477070D01*
Y330670D01*
X486840D01*
Y330853D01*
X486088Y333661D01*
X484634Y336179D01*
X482579Y338234D01*
X480061Y339688D01*
X477253Y340440D01*
D02*
G37*
G36*
X426453D02*
X426270D01*
Y330670D01*
X436040D01*
Y330853D01*
X435288Y333661D01*
X433834Y336179D01*
X431779Y338234D01*
X429261Y339688D01*
X426453Y340440D01*
D02*
G37*
G36*
X423730D02*
X423546D01*
X420739Y339688D01*
X418221Y338234D01*
X416166Y336179D01*
X414712Y333661D01*
X413960Y330853D01*
Y330670D01*
X423730D01*
Y340440D01*
D02*
G37*
G36*
X652330D02*
X652147D01*
X649339Y339688D01*
X646821Y338234D01*
X644766Y336179D01*
X643312Y333661D01*
X642560Y330853D01*
Y330670D01*
X652330D01*
Y340440D01*
D02*
G37*
G36*
X474530D02*
X474347D01*
X471539Y339688D01*
X469021Y338234D01*
X466966Y336179D01*
X465512Y333661D01*
X464760Y330853D01*
Y330670D01*
X474530D01*
Y340440D01*
D02*
G37*
G36*
X680382Y339900D02*
X677618D01*
X674947Y339184D01*
X672553Y337802D01*
X670598Y335847D01*
X669216Y333453D01*
X668500Y330782D01*
Y328018D01*
X669216Y325347D01*
X670598Y322953D01*
X672553Y320998D01*
X674947Y319616D01*
X677618Y318900D01*
X680382D01*
X683053Y319616D01*
X685447Y320998D01*
X687402Y322953D01*
X688784Y325347D01*
X689500Y328018D01*
Y330782D01*
X688784Y333453D01*
X687402Y335847D01*
X685447Y337802D01*
X683053Y339184D01*
X680382Y339900D01*
D02*
G37*
G36*
X629582D02*
X626818D01*
X624147Y339184D01*
X621753Y337802D01*
X619798Y335847D01*
X618416Y333453D01*
X617700Y330782D01*
Y328018D01*
X618416Y325347D01*
X619798Y322953D01*
X621753Y320998D01*
X624147Y319616D01*
X626818Y318900D01*
X629582D01*
X632253Y319616D01*
X634647Y320998D01*
X636602Y322953D01*
X637984Y325347D01*
X638700Y328018D01*
Y330782D01*
X637984Y333453D01*
X636602Y335847D01*
X634647Y337802D01*
X632253Y339184D01*
X629582Y339900D01*
D02*
G37*
G36*
X604182D02*
X601418D01*
X598747Y339184D01*
X596353Y337802D01*
X594398Y335847D01*
X593016Y333453D01*
X592300Y330782D01*
Y328018D01*
X593016Y325347D01*
X594398Y322953D01*
X596353Y320998D01*
X598747Y319616D01*
X601418Y318900D01*
X604182D01*
X606853Y319616D01*
X609247Y320998D01*
X611202Y322953D01*
X612584Y325347D01*
X613300Y328018D01*
Y330782D01*
X612584Y333453D01*
X611202Y335847D01*
X609247Y337802D01*
X606853Y339184D01*
X604182Y339900D01*
D02*
G37*
G36*
X578782D02*
X576018D01*
X573347Y339184D01*
X570953Y337802D01*
X568998Y335847D01*
X567616Y333453D01*
X566900Y330782D01*
Y328018D01*
X567616Y325347D01*
X568998Y322953D01*
X570953Y320998D01*
X573347Y319616D01*
X576018Y318900D01*
X578782D01*
X581453Y319616D01*
X583847Y320998D01*
X585802Y322953D01*
X587184Y325347D01*
X587900Y328018D01*
Y330782D01*
X587184Y333453D01*
X585802Y335847D01*
X583847Y337802D01*
X581453Y339184D01*
X578782Y339900D01*
D02*
G37*
G36*
X553382D02*
X550618D01*
X547947Y339184D01*
X545553Y337802D01*
X543598Y335847D01*
X542216Y333453D01*
X541500Y330782D01*
Y328018D01*
X542216Y325347D01*
X543598Y322953D01*
X545553Y320998D01*
X547947Y319616D01*
X550618Y318900D01*
X553382D01*
X556053Y319616D01*
X558447Y320998D01*
X560402Y322953D01*
X561784Y325347D01*
X562500Y328018D01*
Y330782D01*
X561784Y333453D01*
X560402Y335847D01*
X558447Y337802D01*
X556053Y339184D01*
X553382Y339900D01*
D02*
G37*
G36*
X527982D02*
X525218D01*
X522547Y339184D01*
X520153Y337802D01*
X518198Y335847D01*
X516816Y333453D01*
X516100Y330782D01*
Y328018D01*
X516816Y325347D01*
X518198Y322953D01*
X520153Y320998D01*
X522547Y319616D01*
X525218Y318900D01*
X527982D01*
X530653Y319616D01*
X533047Y320998D01*
X535002Y322953D01*
X536384Y325347D01*
X537100Y328018D01*
Y330782D01*
X536384Y333453D01*
X535002Y335847D01*
X533047Y337802D01*
X530653Y339184D01*
X527982Y339900D01*
D02*
G37*
G36*
X502582D02*
X499818D01*
X497147Y339184D01*
X494753Y337802D01*
X492798Y335847D01*
X491416Y333453D01*
X490700Y330782D01*
Y328018D01*
X491416Y325347D01*
X492798Y322953D01*
X494753Y320998D01*
X497147Y319616D01*
X499818Y318900D01*
X502582D01*
X505253Y319616D01*
X507647Y320998D01*
X509602Y322953D01*
X510984Y325347D01*
X511700Y328018D01*
Y330782D01*
X510984Y333453D01*
X509602Y335847D01*
X507647Y337802D01*
X505253Y339184D01*
X502582Y339900D01*
D02*
G37*
G36*
X451782D02*
X449018D01*
X446347Y339184D01*
X443953Y337802D01*
X441998Y335847D01*
X440616Y333453D01*
X439900Y330782D01*
Y328018D01*
X440616Y325347D01*
X441998Y322953D01*
X443953Y320998D01*
X446347Y319616D01*
X449018Y318900D01*
X451782D01*
X454453Y319616D01*
X456847Y320998D01*
X458802Y322953D01*
X460184Y325347D01*
X460900Y328018D01*
Y330782D01*
X460184Y333453D01*
X458802Y335847D01*
X456847Y337802D01*
X454453Y339184D01*
X451782Y339900D01*
D02*
G37*
G36*
X400982D02*
X398218D01*
X395547Y339184D01*
X393153Y337802D01*
X391198Y335847D01*
X389816Y333453D01*
X389100Y330782D01*
Y328018D01*
X389816Y325347D01*
X391198Y322953D01*
X393153Y320998D01*
X395547Y319616D01*
X398218Y318900D01*
X400982D01*
X403653Y319616D01*
X406047Y320998D01*
X408002Y322953D01*
X409384Y325347D01*
X410100Y328018D01*
Y330782D01*
X409384Y333453D01*
X408002Y335847D01*
X406047Y337802D01*
X403653Y339184D01*
X400982Y339900D01*
D02*
G37*
G36*
X375582D02*
X372818D01*
X370147Y339184D01*
X367753Y337802D01*
X365798Y335847D01*
X364416Y333453D01*
X363700Y330782D01*
Y328018D01*
X364416Y325347D01*
X365798Y322953D01*
X367753Y320998D01*
X370147Y319616D01*
X372818Y318900D01*
X375582D01*
X378253Y319616D01*
X380647Y320998D01*
X382602Y322953D01*
X383984Y325347D01*
X384700Y328018D01*
Y330782D01*
X383984Y333453D01*
X382602Y335847D01*
X380647Y337802D01*
X378253Y339184D01*
X375582Y339900D01*
D02*
G37*
G36*
X350182D02*
X347418D01*
X344747Y339184D01*
X342353Y337802D01*
X340398Y335847D01*
X339016Y333453D01*
X338300Y330782D01*
Y328018D01*
X339016Y325347D01*
X340398Y322953D01*
X342353Y320998D01*
X344747Y319616D01*
X347418Y318900D01*
X350182D01*
X352853Y319616D01*
X355247Y320998D01*
X357202Y322953D01*
X358584Y325347D01*
X359300Y328018D01*
Y330782D01*
X358584Y333453D01*
X357202Y335847D01*
X355247Y337802D01*
X352853Y339184D01*
X350182Y339900D01*
D02*
G37*
G36*
X324782D02*
X322018D01*
X319347Y339184D01*
X316953Y337802D01*
X314998Y335847D01*
X313616Y333453D01*
X312900Y330782D01*
Y328018D01*
X313616Y325347D01*
X314998Y322953D01*
X316953Y320998D01*
X319347Y319616D01*
X322018Y318900D01*
X324782D01*
X327453Y319616D01*
X329847Y320998D01*
X331802Y322953D01*
X333184Y325347D01*
X333900Y328018D01*
Y330782D01*
X333184Y333453D01*
X331802Y335847D01*
X329847Y337802D01*
X327453Y339184D01*
X324782Y339900D01*
D02*
G37*
G36*
X299382D02*
X296618D01*
X293947Y339184D01*
X291553Y337802D01*
X289598Y335847D01*
X288216Y333453D01*
X287500Y330782D01*
Y328018D01*
X288216Y325347D01*
X289598Y322953D01*
X291553Y320998D01*
X293947Y319616D01*
X296618Y318900D01*
X299382D01*
X302053Y319616D01*
X304447Y320998D01*
X306402Y322953D01*
X307784Y325347D01*
X308500Y328018D01*
Y330782D01*
X307784Y333453D01*
X306402Y335847D01*
X304447Y337802D01*
X302053Y339184D01*
X299382Y339900D01*
D02*
G37*
G36*
X664640Y328130D02*
X654870D01*
Y318360D01*
X655053D01*
X657861Y319112D01*
X660379Y320566D01*
X662434Y322621D01*
X663888Y325139D01*
X664640Y327947D01*
Y328130D01*
D02*
G37*
G36*
X652330D02*
X642560D01*
Y327947D01*
X643312Y325139D01*
X644766Y322621D01*
X646821Y320566D01*
X649339Y319112D01*
X652147Y318360D01*
X652330D01*
Y328130D01*
D02*
G37*
G36*
X486840D02*
X477070D01*
Y318360D01*
X477253D01*
X480061Y319112D01*
X482579Y320566D01*
X484634Y322621D01*
X486088Y325139D01*
X486840Y327947D01*
Y328130D01*
D02*
G37*
G36*
X474530D02*
X464760D01*
Y327947D01*
X465512Y325139D01*
X466966Y322621D01*
X469021Y320566D01*
X471539Y319112D01*
X474347Y318360D01*
X474530D01*
Y328130D01*
D02*
G37*
G36*
X436040D02*
X426270D01*
Y318360D01*
X426453D01*
X429261Y319112D01*
X431779Y320566D01*
X433834Y322621D01*
X435288Y325139D01*
X436040Y327947D01*
Y328130D01*
D02*
G37*
G36*
X423730D02*
X413960D01*
Y327947D01*
X414712Y325139D01*
X416166Y322621D01*
X418221Y320566D01*
X420739Y319112D01*
X423546Y318360D01*
X423730D01*
Y328130D01*
D02*
G37*
G36*
X655053Y315040D02*
X654870D01*
Y305270D01*
X664640D01*
Y305453D01*
X663888Y308261D01*
X662434Y310779D01*
X660379Y312834D01*
X657861Y314288D01*
X655053Y315040D01*
D02*
G37*
G36*
X477253D02*
X477070D01*
Y305270D01*
X486840D01*
Y305453D01*
X486088Y308261D01*
X484634Y310779D01*
X482579Y312834D01*
X480061Y314288D01*
X477253Y315040D01*
D02*
G37*
G36*
X652330D02*
X652147D01*
X649339Y314288D01*
X646821Y312834D01*
X644766Y310779D01*
X643312Y308261D01*
X642560Y305453D01*
Y305270D01*
X652330D01*
Y315040D01*
D02*
G37*
G36*
X474530D02*
X474347D01*
X471539Y314288D01*
X469021Y312834D01*
X466966Y310779D01*
X465512Y308261D01*
X464760Y305453D01*
Y305270D01*
X474530D01*
Y315040D01*
D02*
G37*
G36*
X606099Y597350D02*
X603901D01*
X601777Y596781D01*
X599873Y595682D01*
X598318Y594127D01*
X597219Y592223D01*
X596650Y590099D01*
Y587901D01*
X597219Y585777D01*
X598318Y583873D01*
X599873Y582318D01*
X601777Y581219D01*
X603901Y580650D01*
X606099D01*
X608223Y581219D01*
X610127Y582318D01*
X611682Y583873D01*
X611998Y584422D01*
X626561D01*
X675922Y535061D01*
Y441515D01*
X675922Y441515D01*
X676232Y439954D01*
X677116Y438631D01*
X726922Y388825D01*
Y357689D01*
X708424Y339192D01*
X705782Y339900D01*
X703018D01*
X700347Y339184D01*
X697953Y337802D01*
X695998Y335847D01*
X694616Y333453D01*
X693900Y330782D01*
Y328018D01*
X694616Y325347D01*
X695998Y322953D01*
X697953Y320998D01*
X700347Y319616D01*
X703018Y318900D01*
X705782D01*
X708453Y319616D01*
X710847Y320998D01*
X712802Y322953D01*
X714184Y325347D01*
X714900Y328018D01*
Y330782D01*
X714192Y333424D01*
X732902Y352134D01*
X734172Y351608D01*
Y339439D01*
X709232Y314500D01*
X693900D01*
Y293500D01*
X714900D01*
Y308632D01*
X741134Y334866D01*
X741134Y334866D01*
X742018Y336189D01*
X742328Y337750D01*
X742328Y337750D01*
Y391750D01*
X742018Y393311D01*
X741134Y394634D01*
X741134Y394634D01*
X690078Y445689D01*
Y578535D01*
X689768Y580095D01*
X688884Y581418D01*
X685687Y584615D01*
X685781Y584777D01*
X686350Y586901D01*
Y589099D01*
X685781Y591223D01*
X684682Y593127D01*
X683127Y594682D01*
X681223Y595781D01*
X679099Y596350D01*
X676901D01*
X674777Y595781D01*
X672873Y594682D01*
X671318Y593127D01*
X670219Y591223D01*
X669650Y589099D01*
Y586901D01*
X670219Y584777D01*
X671318Y582873D01*
X672873Y581318D01*
X674777Y580219D01*
X676901Y579650D01*
X679099D01*
X679113Y579654D01*
X681922Y576845D01*
Y542255D01*
X680748Y541769D01*
X631134Y591384D01*
X629811Y592268D01*
X628250Y592578D01*
X628250Y592578D01*
X612576D01*
X611682Y594127D01*
X610127Y595682D01*
X608223Y596781D01*
X606099Y597350D01*
D02*
G37*
G36*
X680382Y314500D02*
X677618D01*
X674947Y313784D01*
X672553Y312402D01*
X670598Y310447D01*
X669216Y308053D01*
X668500Y305382D01*
Y302618D01*
X669216Y299947D01*
X670598Y297553D01*
X672553Y295598D01*
X674947Y294216D01*
X677618Y293500D01*
X680382D01*
X683053Y294216D01*
X685447Y295598D01*
X687402Y297553D01*
X688784Y299947D01*
X689500Y302618D01*
Y305382D01*
X688784Y308053D01*
X687402Y310447D01*
X685447Y312402D01*
X683053Y313784D01*
X680382Y314500D01*
D02*
G37*
G36*
X629582D02*
X626818D01*
X624147Y313784D01*
X621753Y312402D01*
X619798Y310447D01*
X618416Y308053D01*
X617700Y305382D01*
Y302618D01*
X618416Y299947D01*
X619798Y297553D01*
X621753Y295598D01*
X624147Y294216D01*
X626818Y293500D01*
X629582D01*
X632253Y294216D01*
X634647Y295598D01*
X636602Y297553D01*
X637984Y299947D01*
X638700Y302618D01*
Y305382D01*
X637984Y308053D01*
X636602Y310447D01*
X634647Y312402D01*
X632253Y313784D01*
X629582Y314500D01*
D02*
G37*
G36*
X604182D02*
X601418D01*
X598747Y313784D01*
X596353Y312402D01*
X594398Y310447D01*
X593016Y308053D01*
X592300Y305382D01*
Y302618D01*
X593016Y299947D01*
X594398Y297553D01*
X596353Y295598D01*
X598747Y294216D01*
X601418Y293500D01*
X604182D01*
X606853Y294216D01*
X609247Y295598D01*
X611202Y297553D01*
X612584Y299947D01*
X613300Y302618D01*
Y305382D01*
X612584Y308053D01*
X611202Y310447D01*
X609247Y312402D01*
X606853Y313784D01*
X604182Y314500D01*
D02*
G37*
G36*
X578782D02*
X576018D01*
X573347Y313784D01*
X570953Y312402D01*
X568998Y310447D01*
X567616Y308053D01*
X566900Y305382D01*
Y302618D01*
X567616Y299947D01*
X568998Y297553D01*
X570953Y295598D01*
X573347Y294216D01*
X576018Y293500D01*
X578782D01*
X581453Y294216D01*
X583847Y295598D01*
X585802Y297553D01*
X587184Y299947D01*
X587900Y302618D01*
Y305382D01*
X587184Y308053D01*
X585802Y310447D01*
X583847Y312402D01*
X581453Y313784D01*
X578782Y314500D01*
D02*
G37*
G36*
X553382D02*
X550618D01*
X547947Y313784D01*
X545553Y312402D01*
X543598Y310447D01*
X542216Y308053D01*
X541500Y305382D01*
Y302618D01*
X542216Y299947D01*
X543598Y297553D01*
X545553Y295598D01*
X547947Y294216D01*
X550618Y293500D01*
X553382D01*
X556053Y294216D01*
X558447Y295598D01*
X560402Y297553D01*
X561784Y299947D01*
X562500Y302618D01*
Y305382D01*
X561784Y308053D01*
X560402Y310447D01*
X558447Y312402D01*
X556053Y313784D01*
X553382Y314500D01*
D02*
G37*
G36*
X527982D02*
X525218D01*
X522547Y313784D01*
X520153Y312402D01*
X518198Y310447D01*
X516816Y308053D01*
X516100Y305382D01*
Y302618D01*
X516816Y299947D01*
X518198Y297553D01*
X520153Y295598D01*
X522547Y294216D01*
X525218Y293500D01*
X527982D01*
X530653Y294216D01*
X533047Y295598D01*
X535002Y297553D01*
X536384Y299947D01*
X537100Y302618D01*
Y305382D01*
X536384Y308053D01*
X535002Y310447D01*
X533047Y312402D01*
X530653Y313784D01*
X527982Y314500D01*
D02*
G37*
G36*
X502582D02*
X499818D01*
X497147Y313784D01*
X494753Y312402D01*
X492798Y310447D01*
X491416Y308053D01*
X490700Y305382D01*
Y302618D01*
X491416Y299947D01*
X492798Y297553D01*
X494753Y295598D01*
X497147Y294216D01*
X499818Y293500D01*
X502582D01*
X505253Y294216D01*
X507647Y295598D01*
X509602Y297553D01*
X510984Y299947D01*
X511700Y302618D01*
Y305382D01*
X510984Y308053D01*
X509602Y310447D01*
X507647Y312402D01*
X505253Y313784D01*
X502582Y314500D01*
D02*
G37*
G36*
X451782D02*
X449018D01*
X446347Y313784D01*
X443953Y312402D01*
X441998Y310447D01*
X440616Y308053D01*
X439900Y305382D01*
Y302618D01*
X440616Y299947D01*
X441998Y297553D01*
X443953Y295598D01*
X446347Y294216D01*
X449018Y293500D01*
X451782D01*
X454453Y294216D01*
X456847Y295598D01*
X458802Y297553D01*
X460184Y299947D01*
X460900Y302618D01*
Y305382D01*
X460184Y308053D01*
X458802Y310447D01*
X456847Y312402D01*
X454453Y313784D01*
X451782Y314500D01*
D02*
G37*
G36*
X426382D02*
X423618D01*
X420947Y313784D01*
X418553Y312402D01*
X416598Y310447D01*
X415216Y308053D01*
X414500Y305382D01*
Y302618D01*
X415216Y299947D01*
X416598Y297553D01*
X418553Y295598D01*
X420947Y294216D01*
X423618Y293500D01*
X426382D01*
X429053Y294216D01*
X431447Y295598D01*
X433402Y297553D01*
X434784Y299947D01*
X435500Y302618D01*
Y305382D01*
X434784Y308053D01*
X433402Y310447D01*
X431447Y312402D01*
X429053Y313784D01*
X426382Y314500D01*
D02*
G37*
G36*
X400982D02*
X398218D01*
X395547Y313784D01*
X393153Y312402D01*
X391198Y310447D01*
X389816Y308053D01*
X389100Y305382D01*
Y302618D01*
X389816Y299947D01*
X391198Y297553D01*
X393153Y295598D01*
X395547Y294216D01*
X398218Y293500D01*
X400982D01*
X403653Y294216D01*
X406047Y295598D01*
X408002Y297553D01*
X409384Y299947D01*
X410100Y302618D01*
Y305382D01*
X409384Y308053D01*
X408002Y310447D01*
X406047Y312402D01*
X403653Y313784D01*
X400982Y314500D01*
D02*
G37*
G36*
X375582D02*
X372818D01*
X370147Y313784D01*
X367753Y312402D01*
X365798Y310447D01*
X364416Y308053D01*
X363700Y305382D01*
Y302618D01*
X364416Y299947D01*
X365798Y297553D01*
X367753Y295598D01*
X370147Y294216D01*
X372818Y293500D01*
X375582D01*
X378253Y294216D01*
X380647Y295598D01*
X382602Y297553D01*
X383984Y299947D01*
X384700Y302618D01*
Y305382D01*
X383984Y308053D01*
X382602Y310447D01*
X380647Y312402D01*
X378253Y313784D01*
X375582Y314500D01*
D02*
G37*
G36*
X350182D02*
X347418D01*
X344747Y313784D01*
X342353Y312402D01*
X340398Y310447D01*
X339016Y308053D01*
X338300Y305382D01*
Y302618D01*
X339016Y299947D01*
X340398Y297553D01*
X342353Y295598D01*
X344747Y294216D01*
X347418Y293500D01*
X350182D01*
X352853Y294216D01*
X355247Y295598D01*
X357202Y297553D01*
X358584Y299947D01*
X359300Y302618D01*
Y305382D01*
X358584Y308053D01*
X357202Y310447D01*
X355247Y312402D01*
X352853Y313784D01*
X350182Y314500D01*
D02*
G37*
G36*
X324782D02*
X322018D01*
X319347Y313784D01*
X316953Y312402D01*
X314998Y310447D01*
X313616Y308053D01*
X312900Y305382D01*
Y302618D01*
X313616Y299947D01*
X314998Y297553D01*
X316953Y295598D01*
X319347Y294216D01*
X322018Y293500D01*
X324782D01*
X327453Y294216D01*
X329847Y295598D01*
X331802Y297553D01*
X333184Y299947D01*
X333900Y302618D01*
Y305382D01*
X333184Y308053D01*
X331802Y310447D01*
X329847Y312402D01*
X327453Y313784D01*
X324782Y314500D01*
D02*
G37*
G36*
X299382D02*
X296618D01*
X293947Y313784D01*
X291553Y312402D01*
X289598Y310447D01*
X288216Y308053D01*
X287500Y305382D01*
Y302618D01*
X288216Y299947D01*
X289598Y297553D01*
X291553Y295598D01*
X293947Y294216D01*
X296618Y293500D01*
X299382D01*
X302053Y294216D01*
X304447Y295598D01*
X306402Y297553D01*
X307784Y299947D01*
X308500Y302618D01*
Y305382D01*
X307784Y308053D01*
X306402Y310447D01*
X304447Y312402D01*
X302053Y313784D01*
X299382Y314500D01*
D02*
G37*
G36*
X664640Y302730D02*
X654870D01*
Y292960D01*
X655053D01*
X657861Y293712D01*
X660379Y295166D01*
X662434Y297221D01*
X663888Y299739D01*
X664640Y302547D01*
Y302730D01*
D02*
G37*
G36*
X652330D02*
X642560D01*
Y302547D01*
X643312Y299739D01*
X644766Y297221D01*
X646821Y295166D01*
X649339Y293712D01*
X652147Y292960D01*
X652330D01*
Y302730D01*
D02*
G37*
G36*
X486840D02*
X477070D01*
Y292960D01*
X477253D01*
X480061Y293712D01*
X482579Y295166D01*
X484634Y297221D01*
X486088Y299739D01*
X486840Y302547D01*
Y302730D01*
D02*
G37*
G36*
X474530D02*
X464760D01*
Y302547D01*
X465512Y299739D01*
X466966Y297221D01*
X469021Y295166D01*
X471539Y293712D01*
X474347Y292960D01*
X474530D01*
Y302730D01*
D02*
G37*
%LPD*%
D36*
X605000Y589000D02*
X605500Y588500D01*
X628250D02*
X680000Y536750D01*
X605500Y588500D02*
X628250D01*
X738250Y337750D02*
Y391750D01*
X711000Y310500D02*
X738250Y337750D01*
X686000Y444000D02*
X738250Y391750D01*
X680000Y441515D02*
X731000Y390515D01*
X704400Y329400D02*
X731000Y356000D01*
Y390515D01*
X710900Y310500D02*
X711000D01*
X680000Y441515D02*
Y536750D01*
X704400Y304000D02*
X710900Y310500D01*
X686000Y444000D02*
Y578535D01*
X678000Y586535D02*
X686000Y578535D01*
X678000Y586535D02*
Y588000D01*
D57*
X525400Y548800D02*
D03*
D59*
X475800Y304000D02*
D03*
Y329400D02*
D03*
X425000D02*
D03*
X653600D02*
D03*
Y304000D02*
D03*
X704400Y329400D02*
D03*
D60*
Y304000D02*
D03*
D61*
X733400Y833400D02*
D03*
Y782600D02*
D03*
X682600D02*
D03*
Y833400D02*
D03*
X318400Y832400D02*
D03*
Y781600D02*
D03*
X267600D02*
D03*
Y832400D02*
D03*
D63*
X265000Y505000D02*
D03*
X267500Y577500D02*
D03*
X356500Y398000D02*
D03*
X512250Y362250D02*
D03*
X713064Y548461D02*
D03*
X678000Y588000D02*
D03*
X605000Y589000D02*
D03*
D64*
X336729Y580121D02*
D03*
X348750Y578000D02*
D03*
X346629Y590021D02*
D03*
X370997Y418999D02*
D03*
X363997Y428999D02*
D03*
X356997Y418999D02*
D03*
X650250Y401000D02*
D03*
Y414000D02*
D03*
X616500Y413500D02*
D03*
Y400500D02*
D03*
X655000Y516000D02*
D03*
Y530000D02*
D03*
X665000Y523000D02*
D03*
X593000D02*
D03*
X583000Y530000D02*
D03*
Y516000D02*
D03*
X703000Y459000D02*
D03*
X696000Y449000D02*
D03*
X710000D02*
D03*
X616997Y457999D02*
D03*
X609997Y447999D02*
D03*
X623997D02*
D03*
X571000Y413250D02*
D03*
Y400250D02*
D03*
X604750Y400750D02*
D03*
Y413750D02*
D03*
X580000Y595000D02*
D03*
X650000Y731000D02*
D03*
X664000D02*
D03*
X657000Y721000D02*
D03*
X607000Y623435D02*
D03*
Y609435D02*
D03*
X597000Y616435D02*
D03*
X516565Y710000D02*
D03*
X523565Y720000D02*
D03*
X509565D02*
D03*
X394000Y717435D02*
D03*
X401000Y707435D02*
D03*
X408000Y717435D02*
D03*
X470500Y595935D02*
D03*
X450500Y693935D02*
D03*
X464500D02*
D03*
X463500Y605935D02*
D03*
X392500Y604935D02*
D03*
X378500D02*
D03*
X385500Y614935D02*
D03*
X457500Y683935D02*
D03*
X456500Y595935D02*
D03*
X384661Y699162D02*
D03*
X370661D02*
D03*
X377661Y689162D02*
D03*
X549400Y541800D02*
D03*
X539400Y548800D02*
D03*
X549400Y555800D02*
D03*
X532400Y572800D02*
D03*
X525400Y562800D02*
D03*
X518400Y572800D02*
D03*
X516468Y648903D02*
D03*
X506468Y655903D02*
D03*
X516468Y662903D02*
D03*
X418500Y432000D02*
D03*
X425500Y442000D02*
D03*
X432500Y432000D02*
D03*
X315500Y527000D02*
D03*
X322500Y537000D02*
D03*
X329500Y527000D02*
D03*
D65*
X700000Y375000D02*
D03*
X300000Y375000D02*
D03*
Y625000D02*
D03*
X700000D02*
D03*
M02*
