M48
;Layer_Color=9474304
;FILE_FORMAT=4:4
METRIC,LZ
;TYPE=PLATED
T1F00S00C0.6000
T2F00S00C0.7000
T3F00S00C0.7112
T4F00S00C0.7620
T5F00S00C1.0000
T6F00S00C1.5000
T7F00S00C3.5000
%
T01
X004746Y004472
X004873
X005
X005127
X005254
X005508Y004726
Y004853
Y00498
Y005107
Y005234
X005254Y005488
X005127
X005
X004873
X004746
X004502Y005234
Y005107
Y00498
X004502Y004853
X004502Y004726
T02
X004025Y00432
X004185
X004325
X004255Y00442
X00571Y0041325
Y0040025
X0060475Y0040075
X006165Y004005
Y004135
X0060475Y0041375
X00609997Y00447999
X00623997
X00616997Y00457999
X0065025Y00414
Y00401
X00696Y00449
X0071
X00703Y00459
X00665Y00523
X00655Y00516
Y0053
X00593Y00523
X00583Y00516
Y0053
X005494Y005418
Y005558
X005394Y005488
X005254Y005628
X005184Y005728
X005324
X0058Y00595
X00597Y00616435
X00607Y00623435
Y00609435
X00566Y00644
X00516468Y00648903
Y00662903
X00506468Y00655903
X00516565Y0071
X00509565Y0072
X00523565
X004645Y00693935
X004505
X004575Y00683935
X00433Y00650435
X00422Y00660435
X00401Y00707435
X00408Y00717435
X004635Y00605935
X004705Y00595935
X004565
X00657Y00721
X0065Y00731
X00664
X00689Y0069
X00377661Y00689162
X00370661Y00699162
X00384661
X00394Y00717435
X003855Y00614935
X003925Y00604935
X003785
X00346629Y00590021
X0034875Y00578
X00336729Y00580121
X003225Y00537
X003295Y00527
X003155
X003225Y005
X00363997Y00428999
X00370997Y00418999
X00356997
T03
X0051225Y0036225
X005745Y004315
X00621Y00504
X00597Y00572
X00605Y00589
X00678Y00588
X00668Y00572
X00713064Y00548461
X00714Y00519
X00738Y00457
X00533Y00614
X00512Y00622
X00303888Y00585741
X002675Y005775
X00265Y00505
X002925Y00515
X003565Y00398
T04
X004515Y007766
X005015Y007766
X005515Y007766
Y00802
Y008274
X005015Y008274
Y00802
X004515Y00802
Y008274
T05
X00298Y00304
Y003294
X003234
X003488
X003742
Y00304
X003488
X003234
X003996
X00425
X004504
X004758
Y003294
X004504
X00425
X003996
X005012
X005266
X00552
X005774
Y00304
X00552
X005266
X005012
X006028
Y003294
X006282
Y00304
X006536
Y003294
X00679
Y00304
X007044
Y003294
T06
X006826Y007826
X007334
X003184Y007816
X002676
Y008324
X003184
X00293Y00807
X006826Y008334
X007334
X00708Y00808
T07
X003Y00375
X007Y00375
Y00625
X003
M30
