G04*
G04 #@! TF.GenerationSoftware,Altium Limited,Altium Designer,21.2.2 (38)*
G04*
G04 Layer_Color=16711935*
%FSLAX44Y44*%
%MOMM*%
G71*
G04*
G04 #@! TF.SameCoordinates,FBAD0861-C7C3-44E5-B471-CEE513BBFA7F*
G04*
G04*
G04 #@! TF.FilePolarity,Negative*
G04*
G01*
G75*
%ADD10C,0.2000*%
G04:AMPARAMS|DCode=11|XSize=1.1032mm|YSize=1.2032mm|CornerRadius=0.3266mm|HoleSize=0mm|Usage=FLASHONLY|Rotation=180.000|XOffset=0mm|YOffset=0mm|HoleType=Round|Shape=RoundedRectangle|*
%AMROUNDEDRECTD11*
21,1,1.1032,0.5500,0,0,180.0*
21,1,0.4500,1.2032,0,0,180.0*
1,1,0.6532,-0.2250,0.2750*
1,1,0.6532,0.2250,0.2750*
1,1,0.6532,0.2250,-0.2750*
1,1,0.6532,-0.2250,-0.2750*
%
%ADD11ROUNDEDRECTD11*%
G04:AMPARAMS|DCode=19|XSize=1.1532mm|YSize=1.6032mm|CornerRadius=0.3391mm|HoleSize=0mm|Usage=FLASHONLY|Rotation=90.000|XOffset=0mm|YOffset=0mm|HoleType=Round|Shape=RoundedRectangle|*
%AMROUNDEDRECTD19*
21,1,1.1532,0.9250,0,0,90.0*
21,1,0.4750,1.6032,0,0,90.0*
1,1,0.6782,0.4625,0.2375*
1,1,0.6782,0.4625,-0.2375*
1,1,0.6782,-0.4625,-0.2375*
1,1,0.6782,-0.4625,0.2375*
%
%ADD19ROUNDEDRECTD19*%
%ADD27O,1.2532X1.7032*%
%ADD28O,1.7032X1.2532*%
%ADD29C,1.9032*%
%ADD30R,1.9032X1.9032*%
%ADD31C,2.4652*%
%ADD32C,1.7272*%
%ADD33C,1.4732*%
%ADD34C,1.4032*%
%ADD35C,5.2032*%
%ADD66C,0.2540*%
D10*
X448700Y510700D02*
X452300D01*
X461000Y502000D01*
X452300Y485300D02*
X461000Y494000D01*
Y502000D01*
X448700Y485300D02*
X452300D01*
X439000Y501000D02*
X448700Y510700D01*
X439000Y495000D02*
Y501000D01*
Y495000D02*
X448700Y485300D01*
X488300Y546700D02*
Y550300D01*
X513700Y546700D02*
Y550300D01*
D11*
X434000Y635435D02*
D03*
X418000D02*
D03*
D19*
X433000Y692435D02*
D03*
Y672435D02*
D03*
X415000Y692435D02*
D03*
Y672435D02*
D03*
D27*
X487300Y548800D02*
D03*
X512700D02*
D03*
Y447200D02*
D03*
X487300D02*
D03*
X500000Y548800D02*
D03*
X474600D02*
D03*
Y447200D02*
D03*
X500000D02*
D03*
X525400D02*
D03*
Y548800D02*
D03*
D28*
X550800Y510700D02*
D03*
Y485300D02*
D03*
X450200Y510700D02*
D03*
X450200Y485300D02*
D03*
X450200Y472600D02*
D03*
Y523400D02*
D03*
X550800D02*
D03*
Y498000D02*
D03*
Y472600D02*
D03*
X450200Y498000D02*
D03*
D29*
X298000Y304000D02*
D03*
Y329400D02*
D03*
X374200Y304000D02*
D03*
Y329400D02*
D03*
X348800Y304000D02*
D03*
Y329400D02*
D03*
X323400D02*
D03*
Y304000D02*
D03*
X475800D02*
D03*
Y329400D02*
D03*
X450400Y304000D02*
D03*
Y329400D02*
D03*
X425000D02*
D03*
Y304000D02*
D03*
X399600Y329400D02*
D03*
Y304000D02*
D03*
X577400D02*
D03*
Y329400D02*
D03*
X552000Y304000D02*
D03*
Y329400D02*
D03*
X526600D02*
D03*
Y304000D02*
D03*
X501200Y329400D02*
D03*
Y304000D02*
D03*
X602800D02*
D03*
Y329400D02*
D03*
X628200Y304000D02*
D03*
Y329400D02*
D03*
X653600D02*
D03*
Y304000D02*
D03*
X679000Y329400D02*
D03*
Y304000D02*
D03*
X704400Y329400D02*
D03*
D30*
Y304000D02*
D03*
D31*
X733400Y833400D02*
D03*
Y782600D02*
D03*
X682600D02*
D03*
Y833400D02*
D03*
X318400Y832400D02*
D03*
Y781600D02*
D03*
X267600D02*
D03*
Y832400D02*
D03*
X708000Y808000D02*
D03*
X293000Y807000D02*
D03*
D32*
X551500Y776600D02*
D03*
Y802000D02*
D03*
Y827400D02*
D03*
X451500Y776600D02*
D03*
Y802000D02*
D03*
Y827400D02*
D03*
X501500Y776600D02*
D03*
Y802000D02*
D03*
Y827400D02*
D03*
D33*
X292500Y515000D02*
D03*
X303888Y585741D02*
D03*
X265000Y505000D02*
D03*
X267500Y577500D02*
D03*
X356500Y398000D02*
D03*
X512250Y362250D02*
D03*
X574500Y431500D02*
D03*
X713064Y548461D02*
D03*
X678000Y588000D02*
D03*
X605000Y589000D02*
D03*
X533000Y614000D02*
D03*
X512000Y622000D02*
D03*
X714000Y519000D02*
D03*
X621000Y504000D02*
D03*
X738000Y457000D02*
D03*
X668000Y572000D02*
D03*
X597000D02*
D03*
D34*
X336729Y580121D02*
D03*
X348750Y578000D02*
D03*
X346629Y590021D02*
D03*
X370997Y418999D02*
D03*
X363997Y428999D02*
D03*
X356997Y418999D02*
D03*
X650250Y401000D02*
D03*
Y414000D02*
D03*
X616500Y413500D02*
D03*
Y400500D02*
D03*
X655000Y516000D02*
D03*
Y530000D02*
D03*
X665000Y523000D02*
D03*
X593000D02*
D03*
X583000Y530000D02*
D03*
Y516000D02*
D03*
X703000Y459000D02*
D03*
X696000Y449000D02*
D03*
X710000D02*
D03*
X616997Y457999D02*
D03*
X609997Y447999D02*
D03*
X623997D02*
D03*
X571000Y413250D02*
D03*
Y400250D02*
D03*
X604750Y400750D02*
D03*
Y413750D02*
D03*
X322500Y500000D02*
D03*
X402500Y432000D02*
D03*
X580000Y595000D02*
D03*
X566000Y644000D02*
D03*
X689000Y690000D02*
D03*
X650000Y731000D02*
D03*
X664000D02*
D03*
X657000Y721000D02*
D03*
X607000Y623435D02*
D03*
Y609435D02*
D03*
X597000Y616435D02*
D03*
X516565Y710000D02*
D03*
X523565Y720000D02*
D03*
X509565D02*
D03*
X394000Y717435D02*
D03*
X401000Y707435D02*
D03*
X408000Y717435D02*
D03*
X470500Y595935D02*
D03*
X450500Y693935D02*
D03*
X464500D02*
D03*
X463500Y605935D02*
D03*
X422000Y660435D02*
D03*
X392500Y604935D02*
D03*
X433000Y650435D02*
D03*
X378500Y604935D02*
D03*
X385500Y614935D02*
D03*
X457500Y683935D02*
D03*
X456500Y595935D02*
D03*
X384661Y699162D02*
D03*
X370661D02*
D03*
X377661Y689162D02*
D03*
X549400Y541800D02*
D03*
X539400Y548800D02*
D03*
X549400Y555800D02*
D03*
X532400Y572800D02*
D03*
X525400Y562800D02*
D03*
X518400Y572800D02*
D03*
X516468Y648903D02*
D03*
X506468Y655903D02*
D03*
X516468Y662903D02*
D03*
X418500Y432000D02*
D03*
X425500Y442000D02*
D03*
X432500Y432000D02*
D03*
X315500Y527000D02*
D03*
X322500Y537000D02*
D03*
X329500Y527000D02*
D03*
D35*
X700000Y375000D02*
D03*
X300000Y375000D02*
D03*
Y625000D02*
D03*
X700000D02*
D03*
D66*
X714775Y729157D02*
Y724079D01*
X712236Y721540D01*
X702079D01*
X699540Y724079D01*
Y729157D01*
X702079Y731697D01*
X712236D01*
X714775Y729157D01*
Y736775D02*
X702079D01*
X699540Y739314D01*
Y744393D01*
X702079Y746932D01*
X714775D01*
Y752010D02*
Y762167D01*
Y757088D01*
X699540D01*
X299236Y714697D02*
X301775Y712158D01*
Y707079D01*
X299236Y704540D01*
X289079D01*
X286540Y707079D01*
Y712158D01*
X289079Y714697D01*
X294158D01*
Y709618D01*
X286540Y719775D02*
X296697D01*
X301775Y724853D01*
X296697Y729932D01*
X286540D01*
X294158D01*
Y719775D01*
X301775Y735010D02*
Y740089D01*
Y737549D01*
X286540D01*
Y735010D01*
Y740089D01*
Y747706D02*
X301775D01*
X286540Y757863D01*
X301775D01*
M02*
