G04*
G04 #@! TF.GenerationSoftware,Altium Limited,Altium Designer,21.2.2 (38)*
G04*
G04 Layer_Color=8388736*
%FSLAX44Y44*%
%MOMM*%
G71*
G04*
G04 #@! TF.SameCoordinates,FBAD0861-C7C3-44E5-B471-CEE513BBFA7F*
G04*
G04*
G04 #@! TF.FilePolarity,Negative*
G04*
G01*
G75*
%ADD10C,0.2000*%
G04:AMPARAMS|DCode=11|XSize=1.1032mm|YSize=1.2032mm|CornerRadius=0.3266mm|HoleSize=0mm|Usage=FLASHONLY|Rotation=180.000|XOffset=0mm|YOffset=0mm|HoleType=Round|Shape=RoundedRectangle|*
%AMROUNDEDRECTD11*
21,1,1.1032,0.5500,0,0,180.0*
21,1,0.4500,1.2032,0,0,180.0*
1,1,0.6532,-0.2250,0.2750*
1,1,0.6532,0.2250,0.2750*
1,1,0.6532,0.2250,-0.2750*
1,1,0.6532,-0.2250,-0.2750*
%
%ADD11ROUNDEDRECTD11*%
G04:AMPARAMS|DCode=12|XSize=0.7532mm|YSize=1.2032mm|CornerRadius=0.2391mm|HoleSize=0mm|Usage=FLASHONLY|Rotation=270.000|XOffset=0mm|YOffset=0mm|HoleType=Round|Shape=RoundedRectangle|*
%AMROUNDEDRECTD12*
21,1,0.7532,0.7250,0,0,270.0*
21,1,0.2750,1.2032,0,0,270.0*
1,1,0.4782,-0.3625,-0.1375*
1,1,0.4782,-0.3625,0.1375*
1,1,0.4782,0.3625,0.1375*
1,1,0.4782,0.3625,-0.1375*
%
%ADD12ROUNDEDRECTD12*%
G04:AMPARAMS|DCode=13|XSize=1.1032mm|YSize=1.2032mm|CornerRadius=0.3266mm|HoleSize=0mm|Usage=FLASHONLY|Rotation=90.000|XOffset=0mm|YOffset=0mm|HoleType=Round|Shape=RoundedRectangle|*
%AMROUNDEDRECTD13*
21,1,1.1032,0.5500,0,0,90.0*
21,1,0.4500,1.2032,0,0,90.0*
1,1,0.6532,0.2750,0.2250*
1,1,0.6532,0.2750,-0.2250*
1,1,0.6532,-0.2750,-0.2250*
1,1,0.6532,-0.2750,0.2250*
%
%ADD13ROUNDEDRECTD13*%
G04:AMPARAMS|DCode=14|XSize=1.4532mm|YSize=1.4032mm|CornerRadius=0.4016mm|HoleSize=0mm|Usage=FLASHONLY|Rotation=90.000|XOffset=0mm|YOffset=0mm|HoleType=Round|Shape=RoundedRectangle|*
%AMROUNDEDRECTD14*
21,1,1.4532,0.6000,0,0,90.0*
21,1,0.6500,1.4032,0,0,90.0*
1,1,0.8032,0.3000,0.3250*
1,1,0.8032,0.3000,-0.3250*
1,1,0.8032,-0.3000,-0.3250*
1,1,0.8032,-0.3000,0.3250*
%
%ADD14ROUNDEDRECTD14*%
G04:AMPARAMS|DCode=15|XSize=1.7032mm|YSize=1.2032mm|CornerRadius=0.3516mm|HoleSize=0mm|Usage=FLASHONLY|Rotation=90.000|XOffset=0mm|YOffset=0mm|HoleType=Round|Shape=RoundedRectangle|*
%AMROUNDEDRECTD15*
21,1,1.7032,0.5000,0,0,90.0*
21,1,1.0000,1.2032,0,0,90.0*
1,1,0.7032,0.2500,0.5000*
1,1,0.7032,0.2500,-0.5000*
1,1,0.7032,-0.2500,-0.5000*
1,1,0.7032,-0.2500,0.5000*
%
%ADD15ROUNDEDRECTD15*%
G04:AMPARAMS|DCode=16|XSize=5.6032mm|YSize=1.7532mm|CornerRadius=0.4891mm|HoleSize=0mm|Usage=FLASHONLY|Rotation=270.000|XOffset=0mm|YOffset=0mm|HoleType=Round|Shape=RoundedRectangle|*
%AMROUNDEDRECTD16*
21,1,5.6032,0.7750,0,0,270.0*
21,1,4.6250,1.7532,0,0,270.0*
1,1,0.9782,-0.3875,-2.3125*
1,1,0.9782,-0.3875,2.3125*
1,1,0.9782,0.3875,2.3125*
1,1,0.9782,0.3875,-2.3125*
%
%ADD16ROUNDEDRECTD16*%
G04:AMPARAMS|DCode=17|XSize=1.7032mm|YSize=0.5032mm|CornerRadius=0.1766mm|HoleSize=0mm|Usage=FLASHONLY|Rotation=0.000|XOffset=0mm|YOffset=0mm|HoleType=Round|Shape=RoundedRectangle|*
%AMROUNDEDRECTD17*
21,1,1.7032,0.1500,0,0,0.0*
21,1,1.3500,0.5032,0,0,0.0*
1,1,0.3532,0.6750,-0.0750*
1,1,0.3532,-0.6750,-0.0750*
1,1,0.3532,-0.6750,0.0750*
1,1,0.3532,0.6750,0.0750*
%
%ADD17ROUNDEDRECTD17*%
%ADD18R,1.7032X0.5032*%
G04:AMPARAMS|DCode=19|XSize=1.1532mm|YSize=1.6032mm|CornerRadius=0.3391mm|HoleSize=0mm|Usage=FLASHONLY|Rotation=90.000|XOffset=0mm|YOffset=0mm|HoleType=Round|Shape=RoundedRectangle|*
%AMROUNDEDRECTD19*
21,1,1.1532,0.9250,0,0,90.0*
21,1,0.4750,1.6032,0,0,90.0*
1,1,0.6782,0.4625,0.2375*
1,1,0.6782,0.4625,-0.2375*
1,1,0.6782,-0.4625,-0.2375*
1,1,0.6782,-0.4625,0.2375*
%
%ADD19ROUNDEDRECTD19*%
G04:AMPARAMS|DCode=20|XSize=1.1532mm|YSize=1.6032mm|CornerRadius=0.3391mm|HoleSize=0mm|Usage=FLASHONLY|Rotation=0.000|XOffset=0mm|YOffset=0mm|HoleType=Round|Shape=RoundedRectangle|*
%AMROUNDEDRECTD20*
21,1,1.1532,0.9250,0,0,0.0*
21,1,0.4750,1.6032,0,0,0.0*
1,1,0.6782,0.2375,-0.4625*
1,1,0.6782,-0.2375,-0.4625*
1,1,0.6782,-0.2375,0.4625*
1,1,0.6782,0.2375,0.4625*
%
%ADD20ROUNDEDRECTD20*%
G04:AMPARAMS|DCode=21|XSize=1.524mm|YSize=0.8128mm|CornerRadius=0.254mm|HoleSize=0mm|Usage=FLASHONLY|Rotation=90.000|XOffset=0mm|YOffset=0mm|HoleType=Round|Shape=RoundedRectangle|*
%AMROUNDEDRECTD21*
21,1,1.5240,0.3048,0,0,90.0*
21,1,1.0160,0.8128,0,0,90.0*
1,1,0.5080,0.1524,0.5080*
1,1,0.5080,0.1524,-0.5080*
1,1,0.5080,-0.1524,-0.5080*
1,1,0.5080,-0.1524,0.5080*
%
%ADD21ROUNDEDRECTD21*%
%ADD22R,0.8128X1.4732*%
G04:AMPARAMS|DCode=23|XSize=1.524mm|YSize=0.8128mm|CornerRadius=0.254mm|HoleSize=0mm|Usage=FLASHONLY|Rotation=0.000|XOffset=0mm|YOffset=0mm|HoleType=Round|Shape=RoundedRectangle|*
%AMROUNDEDRECTD23*
21,1,1.5240,0.3048,0,0,0.0*
21,1,1.0160,0.8128,0,0,0.0*
1,1,0.5080,0.5080,-0.1524*
1,1,0.5080,-0.5080,-0.1524*
1,1,0.5080,-0.5080,0.1524*
1,1,0.5080,0.5080,0.1524*
%
%ADD23ROUNDEDRECTD23*%
G04:AMPARAMS|DCode=24|XSize=0.7532mm|YSize=1.2032mm|CornerRadius=0.2391mm|HoleSize=0mm|Usage=FLASHONLY|Rotation=0.000|XOffset=0mm|YOffset=0mm|HoleType=Round|Shape=RoundedRectangle|*
%AMROUNDEDRECTD24*
21,1,0.7532,0.7250,0,0,0.0*
21,1,0.2750,1.2032,0,0,0.0*
1,1,0.4782,0.1375,-0.3625*
1,1,0.4782,-0.1375,-0.3625*
1,1,0.4782,-0.1375,0.3625*
1,1,0.4782,0.1375,0.3625*
%
%ADD24ROUNDEDRECTD24*%
G04:AMPARAMS|DCode=25|XSize=1.4032mm|YSize=1.0032mm|CornerRadius=0.3016mm|HoleSize=0mm|Usage=FLASHONLY|Rotation=90.000|XOffset=0mm|YOffset=0mm|HoleType=Round|Shape=RoundedRectangle|*
%AMROUNDEDRECTD25*
21,1,1.4032,0.4000,0,0,90.0*
21,1,0.8000,1.0032,0,0,90.0*
1,1,0.6032,0.2000,0.4000*
1,1,0.6032,0.2000,-0.4000*
1,1,0.6032,-0.2000,-0.4000*
1,1,0.6032,-0.2000,0.4000*
%
%ADD25ROUNDEDRECTD25*%
%ADD26R,1.4732X0.8128*%
%ADD27O,1.2532X1.7032*%
%ADD28O,1.7032X1.2532*%
%ADD29C,1.9032*%
%ADD30R,1.9032X1.9032*%
%ADD31C,2.4652*%
%ADD32C,1.7272*%
%ADD33C,1.4732*%
%ADD34C,1.4032*%
%ADD35C,5.2032*%
D10*
X453300Y510700D02*
X462000Y502000D01*
X450200Y510700D02*
X453300D01*
X462000Y493000D02*
Y502000D01*
X454300Y485300D02*
X462000Y493000D01*
X450200Y485300D02*
X454300D01*
X437200Y510700D02*
X450200D01*
X432500Y506000D02*
X437200Y510700D01*
X368500Y506000D02*
X432500D01*
X398200Y485300D02*
X450200D01*
X372500Y492000D02*
X391500D01*
X367500Y487000D02*
X372500Y492000D01*
X391500D02*
X398200Y485300D01*
X355102Y492602D02*
X368500Y506000D01*
X355102Y471398D02*
Y492602D01*
X365500Y469000D02*
X367500Y471000D01*
Y487000D01*
X355102Y471398D02*
X357500Y469000D01*
X365500D01*
X484000Y617000D02*
X486000Y615000D01*
X488300Y544700D02*
Y548800D01*
X513700Y545700D02*
Y548800D01*
D11*
X294367Y579941D02*
D03*
X278367D02*
D03*
X294367Y564941D02*
D03*
X278367D02*
D03*
X435000Y701435D02*
D03*
X419000D02*
D03*
Y684435D02*
D03*
X435000D02*
D03*
X435000Y627435D02*
D03*
X419000D02*
D03*
X498000Y634435D02*
D03*
X482000D02*
D03*
X476000Y655435D02*
D03*
X492000D02*
D03*
X419000Y718435D02*
D03*
X435000D02*
D03*
X482000Y615565D02*
D03*
X498000D02*
D03*
X405500Y474000D02*
D03*
X421500D02*
D03*
X625000Y519000D02*
D03*
X697000D02*
D03*
X564000Y595000D02*
D03*
X609000Y519000D02*
D03*
X681000D02*
D03*
X604250Y362000D02*
D03*
X588250D02*
D03*
X650000D02*
D03*
X634000D02*
D03*
X617000Y578000D02*
D03*
X633000D02*
D03*
X689000Y580000D02*
D03*
X705000D02*
D03*
X617000Y712000D02*
D03*
X601000D02*
D03*
X556000Y677000D02*
D03*
X540000D02*
D03*
X548000Y595000D02*
D03*
D12*
X299574Y546676D02*
D03*
Y527676D02*
D03*
X277574D02*
D03*
Y537176D02*
D03*
Y546676D02*
D03*
X677000Y470500D02*
D03*
Y480000D02*
D03*
X655000D02*
D03*
X677000Y489500D02*
D03*
X655000D02*
D03*
Y470500D02*
D03*
D13*
X262500Y552000D02*
D03*
Y568000D02*
D03*
Y535500D02*
D03*
Y519500D02*
D03*
X352000Y659000D02*
D03*
Y643000D02*
D03*
X418000Y594435D02*
D03*
Y610435D02*
D03*
X463000Y618435D02*
D03*
Y634435D02*
D03*
X385000Y675435D02*
D03*
Y659435D02*
D03*
X436000Y594435D02*
D03*
Y610435D02*
D03*
X401000Y677435D02*
D03*
Y693435D02*
D03*
X355497Y458999D02*
D03*
Y442999D02*
D03*
X404500Y514000D02*
D03*
Y498000D02*
D03*
X389497Y442999D02*
D03*
Y458999D02*
D03*
X372497Y442999D02*
D03*
Y458999D02*
D03*
X359500Y551000D02*
D03*
Y567000D02*
D03*
X421500Y498000D02*
D03*
Y514000D02*
D03*
X584000Y632000D02*
D03*
X657000Y689000D02*
D03*
X597000Y556000D02*
D03*
X669000D02*
D03*
X738000Y473000D02*
D03*
X657000Y705000D02*
D03*
X584000Y616000D02*
D03*
X597000Y540000D02*
D03*
X598000Y472000D02*
D03*
X615998Y471999D02*
D03*
X669000Y540000D02*
D03*
X702000Y473000D02*
D03*
X720000D02*
D03*
X725000Y556000D02*
D03*
Y540000D02*
D03*
X634000Y488000D02*
D03*
Y472000D02*
D03*
X615998Y487999D02*
D03*
X598000Y488000D02*
D03*
X738000Y489000D02*
D03*
X720000D02*
D03*
X702000D02*
D03*
X547000Y630000D02*
D03*
Y614000D02*
D03*
D14*
X633500Y382750D02*
D03*
Y430250D02*
D03*
X588000Y382500D02*
D03*
Y430000D02*
D03*
D15*
X625500Y406500D02*
D03*
X641500D02*
D03*
X580000Y406250D02*
D03*
X596000D02*
D03*
D16*
X425500Y379000D02*
D03*
X372500D02*
D03*
D17*
X450000Y665435D02*
D03*
Y660435D02*
D03*
Y655435D02*
D03*
Y650435D02*
D03*
Y645435D02*
D03*
X406000D02*
D03*
Y650435D02*
D03*
Y655435D02*
D03*
Y660435D02*
D03*
D18*
Y665435D02*
D03*
D19*
X385000Y645435D02*
D03*
Y625435D02*
D03*
X376500Y570000D02*
D03*
Y550000D02*
D03*
X517000Y677000D02*
D03*
Y697000D02*
D03*
X566000Y632000D02*
D03*
X675000Y689000D02*
D03*
Y709000D02*
D03*
X566000Y612000D02*
D03*
D20*
X494000Y673435D02*
D03*
X474000D02*
D03*
X678000Y665000D02*
D03*
X658000D02*
D03*
X425500Y456000D02*
D03*
X405500D02*
D03*
X322500Y551000D02*
D03*
X342500D02*
D03*
X447000Y386000D02*
D03*
X467000D02*
D03*
D21*
X386550Y532670D02*
D03*
Y479330D02*
D03*
X348450Y532670D02*
D03*
X373850D02*
D03*
Y479330D02*
D03*
X361150Y532670D02*
D03*
Y479330D02*
D03*
D22*
X348450D02*
D03*
D23*
X583330Y651950D02*
D03*
X636670Y677350D02*
D03*
Y651950D02*
D03*
Y690050D02*
D03*
Y664650D02*
D03*
X583330D02*
D03*
Y677350D02*
D03*
D24*
X625000Y537000D02*
D03*
X696500Y538000D02*
D03*
X615500Y559000D02*
D03*
X687000Y560000D02*
D03*
X706000Y538000D02*
D03*
X634500Y559000D02*
D03*
Y537000D02*
D03*
X615500D02*
D03*
X706000Y560000D02*
D03*
X687000Y538000D02*
D03*
D25*
X505500Y379750D02*
D03*
Y417750D02*
D03*
D26*
X583330Y690050D02*
D03*
D27*
X487300Y548800D02*
D03*
X512700D02*
D03*
Y447200D02*
D03*
X487300D02*
D03*
X500000Y548800D02*
D03*
X474600D02*
D03*
Y447200D02*
D03*
X500000D02*
D03*
X525400D02*
D03*
Y548800D02*
D03*
D28*
X550800Y510700D02*
D03*
Y485300D02*
D03*
X450200Y510700D02*
D03*
X450200Y485300D02*
D03*
X450200Y472600D02*
D03*
Y523400D02*
D03*
X550800D02*
D03*
Y498000D02*
D03*
Y472600D02*
D03*
X450200Y498000D02*
D03*
D29*
X298000Y304000D02*
D03*
Y329400D02*
D03*
X374200Y304000D02*
D03*
Y329400D02*
D03*
X348800Y304000D02*
D03*
Y329400D02*
D03*
X323400D02*
D03*
Y304000D02*
D03*
X475800D02*
D03*
Y329400D02*
D03*
X450400Y304000D02*
D03*
Y329400D02*
D03*
X425000D02*
D03*
Y304000D02*
D03*
X399600Y329400D02*
D03*
Y304000D02*
D03*
X577400D02*
D03*
Y329400D02*
D03*
X552000Y304000D02*
D03*
Y329400D02*
D03*
X526600D02*
D03*
Y304000D02*
D03*
X501200Y329400D02*
D03*
Y304000D02*
D03*
X602800D02*
D03*
Y329400D02*
D03*
X628200Y304000D02*
D03*
Y329400D02*
D03*
X653600D02*
D03*
Y304000D02*
D03*
X679000Y329400D02*
D03*
Y304000D02*
D03*
X704400Y329400D02*
D03*
D30*
Y304000D02*
D03*
D31*
X733400Y833400D02*
D03*
Y782600D02*
D03*
X682600D02*
D03*
Y833400D02*
D03*
X318400Y832400D02*
D03*
Y781600D02*
D03*
X267600D02*
D03*
Y832400D02*
D03*
X708000Y808000D02*
D03*
X293000Y807000D02*
D03*
D32*
X551500Y776600D02*
D03*
Y802000D02*
D03*
Y827400D02*
D03*
X451500Y776600D02*
D03*
Y802000D02*
D03*
Y827400D02*
D03*
X501500Y776600D02*
D03*
Y802000D02*
D03*
Y827400D02*
D03*
D33*
X292500Y515000D02*
D03*
X303888Y585741D02*
D03*
X265000Y505000D02*
D03*
X267500Y577500D02*
D03*
X356500Y398000D02*
D03*
X512250Y362250D02*
D03*
X574500Y431500D02*
D03*
X713064Y548461D02*
D03*
X678000Y588000D02*
D03*
X605000Y589000D02*
D03*
X533000Y614000D02*
D03*
X512000Y622000D02*
D03*
X714000Y519000D02*
D03*
X621000Y504000D02*
D03*
X738000Y457000D02*
D03*
X668000Y572000D02*
D03*
X597000D02*
D03*
D34*
X336729Y580121D02*
D03*
X348750Y578000D02*
D03*
X346629Y590021D02*
D03*
X370997Y418999D02*
D03*
X363997Y428999D02*
D03*
X356997Y418999D02*
D03*
X650250Y401000D02*
D03*
Y414000D02*
D03*
X616500Y413500D02*
D03*
Y400500D02*
D03*
X655000Y516000D02*
D03*
Y530000D02*
D03*
X665000Y523000D02*
D03*
X593000D02*
D03*
X583000Y530000D02*
D03*
Y516000D02*
D03*
X703000Y459000D02*
D03*
X696000Y449000D02*
D03*
X710000D02*
D03*
X616997Y457999D02*
D03*
X609997Y447999D02*
D03*
X623997D02*
D03*
X571000Y413250D02*
D03*
Y400250D02*
D03*
X604750Y400750D02*
D03*
Y413750D02*
D03*
X322500Y500000D02*
D03*
X402500Y432000D02*
D03*
X580000Y595000D02*
D03*
X566000Y644000D02*
D03*
X689000Y690000D02*
D03*
X650000Y731000D02*
D03*
X664000D02*
D03*
X657000Y721000D02*
D03*
X607000Y623435D02*
D03*
Y609435D02*
D03*
X597000Y616435D02*
D03*
X516565Y710000D02*
D03*
X523565Y720000D02*
D03*
X509565D02*
D03*
X394000Y717435D02*
D03*
X401000Y707435D02*
D03*
X408000Y717435D02*
D03*
X470500Y595935D02*
D03*
X450500Y693935D02*
D03*
X464500D02*
D03*
X463500Y605935D02*
D03*
X422000Y660435D02*
D03*
X392500Y604935D02*
D03*
X433000Y650435D02*
D03*
X378500Y604935D02*
D03*
X385500Y614935D02*
D03*
X457500Y683935D02*
D03*
X456500Y595935D02*
D03*
X384661Y699162D02*
D03*
X370661D02*
D03*
X377661Y689162D02*
D03*
X549400Y541800D02*
D03*
X539400Y548800D02*
D03*
X549400Y555800D02*
D03*
X532400Y572800D02*
D03*
X525400Y562800D02*
D03*
X518400Y572800D02*
D03*
X516468Y648903D02*
D03*
X506468Y655903D02*
D03*
X516468Y662903D02*
D03*
X418500Y432000D02*
D03*
X425500Y442000D02*
D03*
X432500Y432000D02*
D03*
X315500Y527000D02*
D03*
X322500Y537000D02*
D03*
X329500Y527000D02*
D03*
D35*
X700000Y375000D02*
D03*
X300000Y375000D02*
D03*
Y625000D02*
D03*
X700000D02*
D03*
M02*
